<?xml version="1.0" encoding="utf-8"?>
<!-- Generator: Adobe Illustrator 21.1.0, SVG Export Plug-In . SVG Version: 6.00 Build 0)  -->
<svg version="1.1"
	 id="Layer_1" xmlns:cc="http://creativecommons.org/ns#" xmlns:dc="http://purl.org/dc/elements/1.1/" xmlns:inkscape="http://www.inkscape.org/namespaces/inkscape" xmlns:rdf="http://www.w3.org/1999/02/22-rdf-syntax-ns#" xmlns:sodipodi="http://sodipodi.sourceforge.net/DTD/sodipodi-0.dtd" xmlns:svg="http://www.w3.org/2000/svg"
	 xmlns="http://www.w3.org/2000/svg" xmlns:xlink="http://www.w3.org/1999/xlink" x="0px" y="0px" viewBox="0 0 68 68"
	 style="enable-background:new 0 0 68 68;" xml:space="preserve">
<g transform="translate(0,-952.36218)">
	<path d="M18,952.4c-10,0-18,8-18,18v32c0,10,8,18,18,18h32c10,0,18-8,18-18v-32c0-10-8-18-18-18L18,952.4L18,952.4z M54,962.4
		c2.2,0,4,1.8,4,4c0,2.2-1.8,4-4,4c-2.2,0-4-1.8-4-4C50,964.2,51.8,962.4,54,962.4z M34,967.4c10.5,0,19,8.5,19,19s-8.5,19-19,19
		s-19-8.5-19-19S23.5,967.4,34,967.4z M34,971.4c-8.3,0-15,6.7-15,15s6.7,15,15,15s15-6.7,15-15C49,978.1,42.3,971.4,34,971.4z"/>
</g>
</svg>
