<svg xmlns="http://www.w3.org/2000/svg" style="display: none;"><symbol id="round-delete-button" viewBox="0 0 400 400"><title>round-delete-button</title><path d="M199.992,0C89.717,0,0,89.72,0,200s89.717,200,199.992,200C310.273,400,400,310.28,400,200S310.273,0,199.992,0z M199.992,373.77C104.178,373.77,26.23,295.816,26.23,200c0-95.817,77.947-173.769,173.762-173.769 c95.822,0,173.776,77.953,173.776,173.769C373.769,295.816,295.814,373.77,199.992,373.77z" fill="#FFFFFF"/><path d="M265.473,134.529c-5.123-5.123-13.422-5.123-18.545,0L200,181.454l-46.928-46.925c-5.123-5.123-13.424-5.123-18.547,0 c-5.123,5.12-5.123,13.426,0,18.546L181.447,200l-46.928,46.926c-5.123,5.119-5.123,13.422,0,18.547 c2.561,2.562,5.918,3.842,9.273,3.842s6.711-1.28,9.271-3.842L200,218.543l46.928,46.932c2.562,2.562,5.916,3.842,9.271,3.842 c3.354,0,6.711-1.279,9.272-3.842c5.123-5.119,5.123-13.426,0-18.545L218.545,200l46.928-46.925 C270.596,147.955,270.596,139.652,265.473,134.529z" fill="#FFFFFF"/></symbol><symbol id="photo-camera" viewBox="0 0 512.001 512.001"><title>photo-camera</title><g> <g> <path d="M500.469,131.36H340.072l-11.794-74.702c-0.618-3.908-3.987-6.787-7.943-6.787H191.667c-3.956,0-7.327,2.879-7.943,6.787 l-11.796,74.702h-40.842V96.512c0-4.441-3.601-8.042-8.042-8.042H62.999c-4.441,0-8.042,3.601-8.042,8.042v34.847H11.532 c-4.441,0-8.042,3.601-8.042,8.042v90.067v274.491c0,4.441,3.601,8.042,8.042,8.042h488.936c4.441,0,8.042-3.601,8.042-8.042 V229.469v-90.067C508.51,134.959,504.91,131.36,500.469,131.36z M198.538,65.954h114.925l10.328,65.406H188.211L198.538,65.954z M71.041,104.554h43.961v26.806H71.041V104.554z M492.427,495.917H19.574V237.51h136.022 c-20.527,23.868-32.016,54.4-32.016,86.314c0,21.423,5.164,42.406,14.996,61.237c-11.708,6.62-19.285,19.122-19.285,33.119 c0,20.989,17.075,38.064,38.064,38.064c13.224,0,25.367-7.001,32.225-17.852c20.128,11.7,42.9,17.852,66.42,17.852 c73.017,0,132.42-59.404,132.42-132.42c0-31.915-11.489-62.447-32.016-86.314h136.022V495.917z M156.968,384.889 c-0.01-0.016-0.02-0.031-0.03-0.047c-0.003-0.005-0.006-0.011-0.01-0.016c-11.295-18.301-17.265-39.396-17.265-61.002 c0-33.939,14.779-66.108,40.546-88.257c0.001-0.001,0.002-0.002,0.003-0.003c21.064-18.105,47.979-28.076,75.787-28.076 c27.807,0,54.722,9.971,75.787,28.076c0.001,0.001,0.002,0.002,0.003,0.003c25.768,22.15,40.546,54.319,40.546,88.257 c0,64.148-52.189,116.337-116.337,116.337c-23.441,0.001-46.036-6.942-65.344-20.074c-0.002-0.001-0.005-0.003-0.008-0.005 c-0.018-0.013-0.035-0.026-0.054-0.038C177.147,410.882,165.521,398.728,156.968,384.889z M176.189,429.484 c-3.915,6.474-11.048,10.676-18.834,10.676c-12.12,0-21.981-9.86-21.981-21.981c0-8.234,4.536-15.573,11.509-19.337 C154.926,410.497,164.904,420.93,176.189,429.484z M492.427,221.427H339.96c-23.622-19.383-53.315-30.022-83.96-30.022 s-60.339,10.64-83.96,30.022H19.574v-73.984h43.425h60.045H178.8h154.368c0.008,0,0.015,0.001,0.024,0.001 c0.004,0,0.009-0.001,0.013-0.001h159.223V221.427z"/> </g> </g><g> <g> <path d="M256,234.294c-49.368,0-89.531,40.164-89.531,89.531s40.164,89.531,89.531,89.531s89.531-40.164,89.531-89.531 S305.368,234.294,256,234.294z M256,397.272c-40.499,0-73.448-32.948-73.448-73.448s32.949-73.448,73.448-73.448 s73.448,32.949,73.448,73.448S296.5,397.272,256,397.272z"/> </g> </g><g> <g> <path d="M296.998,352.362c-3.189-3.091-8.28-3.013-11.371,0.176c-7.857,8.104-18.378,12.568-29.626,12.568 c-4.441,0-8.042,3.601-8.042,8.042s3.601,8.042,8.042,8.042c15.637,0,30.259-6.2,41.173-17.456 C300.265,360.544,300.187,355.453,296.998,352.362z"/> </g> </g><g> <g> <path d="M256,266.46c-4.441,0-8.042,3.601-8.042,8.042c0,4.441,3.601,8.042,8.042,8.042c22.762,0,41.281,18.518,41.281,41.281 c0,3.654-0.479,7.276-1.423,10.768c-1.16,4.287,1.376,8.702,5.664,9.862c0.703,0.19,1.409,0.281,2.104,0.281 c3.544,0,6.789-2.36,7.758-5.944c1.315-4.859,1.982-9.896,1.982-14.967C313.365,292.194,287.631,266.46,256,266.46z"/> </g> </g><g> <g> <path d="M453.29,260.027c-4.441,0-8.042,3.601-8.042,8.042V461.07c0,4.441,3.601,8.042,8.042,8.042s8.042-3.601,8.042-8.042 V268.069C461.332,263.626,457.732,260.027,453.29,260.027z"/> </g> </g><g> <g> <path d="M453.29,157.093c-4.441,0-8.042,3.601-8.042,8.042v34.311c0,4.441,3.601,8.042,8.042,8.042s8.042-3.601,8.042-8.042 v-34.311C461.332,160.694,457.732,157.093,453.29,157.093z"/> </g> </g><g> <g> <path d="M397.318,48.525h-33.359c-4.441,0-8.042,3.601-8.042,8.042s3.601,8.042,8.042,8.042h33.359 c4.441,0,8.042-3.601,8.042-8.042S401.759,48.525,397.318,48.525z"/> </g> </g><g> <g> <path d="M381.559,99.404L360.33,78.175c-3.141-3.141-8.233-3.141-11.372,0c-3.141,3.141-3.141,8.233,0,11.372l21.229,21.229 c1.57,1.57,3.628,2.356,5.686,2.356s4.116-0.785,5.686-2.356C384.7,107.635,384.7,102.543,381.559,99.404z"/> </g> </g><g> <g> <path d="M381.776,2.355c-3.141-3.141-8.233-3.141-11.372,0l-21.229,21.229c-3.141,3.141-3.141,8.233,0,11.373 c1.57,1.57,3.627,2.356,5.686,2.356c2.058,0,4.116-0.785,5.686-2.356l21.229-21.229C384.917,10.588,384.917,5.496,381.776,2.355z"/> </g> </g></symbol><symbol id="chat" viewBox="0 0 512 512"><title>chat</title><g> <g> <path d="M434.389,312.293c46.03-32.869,73.299-84.029,73.299-138.213C507.688,78.092,423.794,0,320.674,0 c-60.71,0-117.377,27.33-152.487,73.297H12.396c-4.465,0-8.084,3.62-8.084,8.084v340.615c0,4.465,3.62,8.084,8.084,8.084h60.901 v73.836c0,3.251,1.947,6.185,4.942,7.448c1.014,0.428,2.081,0.636,3.14,0.636c2.068,0,4.104-0.793,5.643-2.294l81.723-79.626 h145.462c4.466,0,8.084-3.62,8.084-8.084v-73.859c15.185-0.121,30.277-1.932,44.916-5.422l82.131,30.8 c0.925,0.347,1.886,0.515,2.837,0.515c2.25,0,4.447-0.94,6.01-2.675c2.225-2.471,2.71-6.051,1.222-9.024L434.389,312.293z M306.122,413.912H165.457c-2.108,0-4.133,0.824-5.642,2.294l-70.35,68.547v-62.756c0-4.465-3.62-8.084-8.084-8.084H20.48V89.465 h136.74c-9.8,16.424-16.734,34.365-20.411,52.817H72.758c-4.465,0-8.084,3.62-8.084,8.084v25.869c0,4.465,3.62,8.084,8.084,8.084 h61.235c0.939,15.119,3.953,29.916,9.003,44.194H72.758c-4.465,0-8.084,3.62-8.084,8.084v25.869c0,4.465,3.62,8.084,8.084,8.084 h92.257c12.301,17.171,27.697,32.12,45.468,44.194H72.758c-4.465,0-8.084,3.62-8.084,8.084v25.87c0,4.465,3.62,8.084,8.084,8.084 h181.086c4.466,0,8.084-3.62,8.084-8.084v-9.315c14.293,4.4,29.09,7.162,44.194,8.242V413.912z M134.444,158.451 c-0.312,3.233-0.551,6.469-0.669,9.701H80.842v-9.701H134.444z M149.705,244.682c1.564,3.278,3.237,6.515,5.019,9.701H80.842 v-9.701H149.705z M239.464,330.914c2.08,0.935,4.181,1.835,6.296,2.697v7.004H80.842v-9.701H239.464z M370.546,326.699 c-1.542-0.578-3.219-0.67-4.816-0.269c-14.638,3.691-29.796,5.562-45.056,5.562c-1.858,0-3.828-0.037-6.2-0.115h-0.001 c-19.966-0.657-39.411-4.477-57.798-11.349c-4.066-1.52-8.135-3.215-12.095-5.04c-28.158-12.974-51.903-32.868-68.67-57.536 c-0.002-0.003-0.005-0.008-0.008-0.011c-0.003-0.005-0.008-0.011-0.011-0.015c0-0.001-0.001-0.001-0.001-0.002 c-5.27-7.757-9.83-15.988-13.558-24.469c-0.001-0.002-0.002-0.005-0.003-0.008c-0.013-0.03-0.028-0.06-0.041-0.091 c-0.001-0.001-0.001-0.003-0.001-0.004c-7.975-18.184-12.158-37.437-12.429-57.227c0,0,0,0,0-0.001v-0.001l-0.013-0.739 c-0.008-0.434-0.016-0.869-0.016-1.304c0-7.468,0.582-15.031,1.731-22.481v-0.001c3.642-23.619,12.795-45.643,27.204-65.464 c31.849-43.809,84.898-69.965,141.91-69.965c94.205,0,170.846,70.839,170.846,157.912c0,51.015-26.898,99.154-71.953,128.773 c-3.423,2.251-4.622,6.707-2.79,10.37l18.961,37.924L370.546,326.699z"/> </g> </g><g> <g> <path d="M459.76,112.075c-2.099-3.941-6.994-5.434-10.936-3.334c-3.941,2.1-5.433,6.996-3.334,10.936 c9.087,17.053,13.694,35.357,13.694,54.402c0,4.465,3.618,8.084,8.084,8.084c4.466,0,8.084-3.62,8.084-8.084 C475.352,152.355,470.107,131.493,459.76,112.075z"/> </g> </g><g> <g> <path d="M431.866,75.625c-29.444-27.914-68.933-43.288-111.192-43.288c-4.466,0-8.084,3.62-8.084,8.084 c0,4.465,3.618,8.084,8.084,8.084c38.102,0,73.641,13.798,100.068,38.854c1.563,1.482,3.565,2.217,5.561,2.217 c2.141,0,4.278-0.846,5.867-2.522C435.242,83.814,435.106,78.697,431.866,75.625z"/> </g> </g><g> <g> <path d="M312.051,155.217c-17.534,0-31.798,14.265-31.798,31.798c0,17.533,14.264,31.798,31.798,31.798 s31.798-14.265,31.798-31.798C343.848,169.482,329.585,155.217,312.051,155.217z M312.051,202.644 c-8.618,0-15.629-7.012-15.629-15.629c0-8.618,7.012-15.63,15.629-15.63c8.618,0,15.629,7.012,15.629,15.63 C327.68,195.632,320.668,202.644,312.051,202.644z"/> </g> </g><g> <g> <path d="M398.282,155.217c-17.534,0-31.798,14.265-31.798,31.798c0,17.533,14.264,31.798,31.798,31.798 s31.798-14.265,31.798-31.798C430.08,169.482,415.816,155.217,398.282,155.217z M398.282,202.644 c-8.618,0-15.629-7.012-15.629-15.629c0-8.618,7.012-15.63,15.629-15.63s15.629,7.012,15.629,15.63 C413.912,195.632,406.9,202.644,398.282,202.644z"/> </g> </g><g> <g> <path d="M225.819,155.217c-17.533,0-31.798,14.265-31.798,31.798c0,17.533,14.265,31.798,31.798,31.798 c17.533,0,31.798-14.265,31.798-31.798C257.617,169.482,243.352,155.217,225.819,155.217z M225.819,202.644 c-8.618,0-15.63-7.012-15.63-15.629c0-8.618,7.012-15.63,15.63-15.63c8.618,0,15.629,7.012,15.629,15.63 C241.448,195.632,234.437,202.644,225.819,202.644z"/> </g> </g></symbol><symbol id="search" viewBox="0 0 511.999 511.999"><title>search</title><g> <g> <path d="M428.157,157.414l-95.53-69.366c-3.533-2.565-8.476-1.781-11.043,1.752c-2.566,3.533-1.78,8.477,1.753,11.043 l95.531,69.365c1.403,1.018,3.027,1.509,4.638,1.509c2.444,0,4.856-1.131,6.404-3.261 C432.476,164.923,431.691,159.979,428.157,157.414z"/> </g> </g><g> <g> <path d="M192.857,119.471c-0.684-4.312-4.735-7.258-9.047-6.569L67.212,131.405c-4.312,0.684-7.253,4.735-6.569,9.047 c0.618,3.893,3.978,6.668,7.798,6.668c0.412,0,0.83-0.032,1.249-0.099l116.599-18.503 C190.602,127.834,193.543,123.784,192.857,119.471z"/> </g> </g><g> <g> <path d="M508.737,132.553L331.322,3.731c-1.696-1.231-3.81-1.741-5.884-1.41c-2.07,0.329-3.926,1.466-5.159,3.162l-77.371,106.558 l-10.653-67.129c-0.328-2.071-1.466-3.926-3.163-5.159s-3.815-1.738-5.884-1.41L6.668,72.706 c-4.312,0.684-7.253,4.735-6.569,9.046L42.39,348.265c0.329,2.071,1.466,3.926,3.162,5.159c1.359,0.987,2.986,1.508,4.645,1.508 c0.412,0,0.826-0.033,1.239-0.098l49.757-7.896v84.826c0,4.366,3.54,7.906,7.906,7.906H328.35c4.367,0,7.906-3.54,7.906-7.906 v-22.293c5.424-3.115,10.547-6.711,15.304-10.779l19.699,19.7l-6.335,6.335c-3.087,3.087-3.087,8.093,0,11.181l71.554,71.554 c1.544,1.544,3.567,2.316,5.591,2.316c2.023,0,4.047-0.772,5.591-2.316l23.852-23.852c1.482-1.482,2.315-3.493,2.315-5.59 c0-2.097-0.833-4.108-2.315-5.59l-71.555-71.554c-1.483-1.483-3.494-2.316-5.591-2.316c-2.097,0-4.107,0.833-5.591,2.316 l-6.335,6.335l-19.699-19.699c15.601-18.212,24.111-41.137,24.111-65.374c0-2.593-0.108-5.219-0.311-7.84L510.49,143.594 C513.056,140.061,512.271,135.117,508.737,132.553z M394.365,417.648l60.374,60.374l-12.671,12.671l-60.373-60.374 L394.365,417.648z M101.194,161.916v32.401l-23.409,3.715c-4.312,0.684-7.253,4.735-6.569,9.047 c0.618,3.893,3.978,6.668,7.798,6.668c0.412,0,0.83-0.032,1.249-0.099l20.931-3.321v52.297l-12.837,2.036 c-4.312,0.684-7.253,4.735-6.569,9.047c0.618,3.893,3.978,6.668,7.798,6.668c0.412,0,0.83-0.032,1.249-0.099l10.359-1.643v52.297 l-44.428,7.05L16.954,87.083L217.88,55.199l11.891,74.935l-17.337,23.876H109.099C104.733,154.011,101.194,157.55,101.194,161.916 z M320.445,423.859h-203.44V337.68v-68.306v-68.305v-31.245h99.445c0.002,0,0.004,0.001,0.006,0.001 c0.003,0,0.006-0.001,0.008-0.001h26.352h63.256c0.002,0,0.004,0.001,0.006,0.001c0.003,0,0.006-0.001,0.01-0.001h14.355v8.26 v49.379c-10.927-3.974-22.402-5.988-34.258-5.988c-2.209,0-4.408,0.081-6.595,0.223c-0.59-0.14-1.204-0.223-1.837-0.223H159.695 c-4.366,0-7.906,3.54-7.906,7.906c0,4.366,3.54,7.906,7.906,7.906h72.318c-8.542,5.461-16.309,12.243-22.991,20.213 c-7.884,9.4-13.876,19.955-17.874,31.437h-31.452c-4.366,0-7.906,3.54-7.906,7.906c0,4.366,3.54,7.906,7.906,7.906h27.336 c-1.003,5.733-1.51,11.552-1.51,17.393c0,11.865,2.011,23.34,5.978,34.258h-31.803c-4.366,0-7.906,3.54-7.906,7.906 c0,4.366,3.54,7.906,7.906,7.906h39.156c17.95,31.328,50.971,50.596,87.335,50.596c11.864,0,23.339-2.011,34.258-5.978V423.859z M346.188,382.14c-0.001,0.001-0.002,0.002-0.003,0.003c-6.308,6.308-13.52,11.556-21.433,15.601 c-12.005,6.137-24.98,9.249-38.565,9.249c-32.039,0-61.01-17.737-75.606-46.289c-0.001-0.002-0.002-0.004-0.003-0.006 c-6.135-12.003-9.245-24.976-9.245-38.559c0-7.835,1.079-15.623,3.209-23.145c3.273-11.563,8.858-22.107,16.598-31.337 c16.185-19.302,39.894-30.372,65.048-30.372c13.569,0,26.545,3.116,38.564,9.263c25.594,13.089,42.713,37.895,45.788,66.358 c0.001,0.005,0.002,0.011,0.002,0.017c0.331,3.074,0.5,6.174,0.5,9.216C371.041,344.806,362.215,366.113,346.188,382.14z M382.541,292.896c-7.362-24.39-23.782-45.177-46.285-58.078v-41.224l42.976,31.204c1.403,1.018,3.027,1.509,4.638,1.509 c2.444,0,4.856-1.131,6.404-3.261c2.566-3.533,1.78-8.477-1.753-11.043l-52.265-37.949v-12.136c0-4.366-3.539-7.906-7.906-7.906 h-19.696l-15.664-11.374c-3.533-2.565-8.478-1.782-11.043,1.752c-2.151,2.962-1.94,6.91,0.263,9.622h-39.395h-10.843 l12.514-17.234c0.001-0.001,0.002-0.002,0.003-0.004l83.94-115.603l164.621,119.531L382.541,292.896z"/> </g> </g><g> <g> <path d="M286.187,255.205c-36.908,0-66.935,30.027-66.935,66.935c0,36.908,30.027,66.935,66.935,66.935 c36.908,0,66.935-30.027,66.935-66.935C353.122,285.231,323.095,255.205,286.187,255.205z M286.187,373.263 c-28.19,0-51.123-22.934-51.123-51.123c0-28.19,22.934-51.123,51.123-51.123c28.19,0,51.123,22.934,51.123,51.123 C337.31,350.329,314.376,373.263,286.187,373.263z"/> </g> </g><g> <g> <path d="M308.643,320.766c-3.088-3.087-8.093-3.087-11.182,0l-21.082,21.082c-3.087,3.087-3.087,8.093,0,11.18 c1.544,1.543,3.568,2.316,5.591,2.316s4.047-0.772,5.591-2.316l21.082-21.082C311.731,328.858,311.731,323.852,308.643,320.766z"/> </g> </g><g> <g> <path d="M300.21,287.035c-3.088-3.087-8.093-3.087-11.181,0l-23.19,23.19c-3.087,3.087-3.087,8.093,0,11.18 c1.544,1.543,3.568,2.316,5.591,2.316c2.023,0,4.047-0.772,5.591-2.316l23.189-23.19 C303.298,295.127,303.298,290.121,300.21,287.035z"/> </g> </g></symbol><symbol id="people-1" viewBox="0 0 512 512"><title>people-1</title><path d="M454.889,430.401l-8.412-3.373C488.78,379.97,512,319.526,512,256c0-51.971-15.712-101.977-44.339-144.014 c-0.347-0.683-0.777-1.298-1.277-1.835c-12.541-18.075-27.47-34.653-44.602-49.226c-3.401-2.893-8.502-2.481-11.395,0.92 c-2.893,3.401-2.481,8.504,0.919,11.396c13.744,11.691,25.977,24.759,36.589,38.902c-17.112,6.688-37.652,12.352-60.582,16.827 c-6.33-18.86-14.11-36.444-23.256-52.309c-12.327-21.385-26.506-38.605-41.959-51.27c24.051,6.876,46.962,17.53,67.987,31.733 c3.7,2.497,8.724,1.526,11.224-2.174c2.499-3.699,1.526-8.724-2.174-11.224C356.796,15.12,307.3,0,256,0 C187.619,0,123.333,26.628,74.982,74.982C26.628,123.333,0,187.621,0,256c0,63.608,23.252,124.06,65.624,171.135l-8.306,3.253 c-3.059,1.105-29.07,11.48-29.07,44.553v28.967c0,4.466,3.618,8.092,8.084,8.092h46.504h7.239h8.623h41.362h15.266 c0.39,0,0.771-0.037,1.146-0.091c0.376,0.054,0.756,0.091,1.146,0.091h32.894c4.466,0,8.084-3.618,8.084-8.084 c0-4.466-3.619-8.084-8.084-8.084h-24.81v-28.155c0-29.704,23.332-38.248,24.274-38.58c0.125-0.042,0.249-0.087,0.373-0.136 l39.368-15.418c0.085,0.092,0.165,0.188,0.255,0.276l20.922,20.378c1.511,1.47,3.536,2.293,5.641,2.293 c0.042,0,0.085,0,0.127-0.001c2.151-0.033,4.202-0.924,5.693-2.474l20.089-20.844l39.315,15.766 c0.143,0.058,0.237,0.094,0.383,0.142c0.993,0.349,24.328,8.896,24.328,38.598v28.155H287.34h-62.511h-9.051 c-4.466,0-8.084,3.619-8.084,8.084c0,4.466,3.619,8.084,8.084,8.084h9.051h62.511h67.215h0.001h0.001h10.314h7.238h8.625h41.36 h53.745c4.466,0,8.084-3.676,8.084-8.141v-28.918C483.925,441.995,458.11,431.572,454.889,430.401z M430.428,420.592l-7.969-3.196 v-4.6c8.807-5.165,15.576-13.438,18.792-23.306c11.761-0.929,21.051-10.776,21.051-22.771c0-7.134-3.288-13.51-8.423-17.708 v-14.368c0-27.702-20.788-50.625-47.58-54.027c0.305-5.481,0.516-11.003,0.618-16.532h88.765 C493.739,322.601,470.753,377.874,430.428,420.592z M401.242,402.393h-7.373c-14.285,0-25.906-11.621-25.906-25.904v-21.39h0 c10.531-1.143,29.184-4.824,43.555-16.826c3.219,5.521,8.2,11.492,15.63,14.979v23.236 C427.147,390.772,415.526,402.393,401.242,402.393z M406.292,418.247v4.482l-9.008,9.346l-8.464-8.243v-5.586 c1.657,0.199,3.34,0.314,5.05,0.314h7.373C402.953,418.561,404.634,418.446,406.292,418.247z M359.905,339.456 c-0.009,0-0.018,0-0.027,0c-0.278,0-0.554,0.015-0.825,0.042c-0.087,0.009-0.172,0.027-0.259,0.039 c-0.182,0.024-0.364,0.046-0.542,0.083c-0.122,0.024-0.239,0.061-0.359,0.092c-0.139,0.035-0.279,0.065-0.414,0.107 c-0.088,0.027-0.171,0.064-0.258,0.094v-5.269c0-21.126,17.187-38.312,38.313-38.312h3.866c21.125,0,38.309,17.186,38.309,38.312 v5.203c-0.152-0.049-0.306-0.087-0.462-0.126c-0.074-0.021-0.148-0.045-0.223-0.064c-11.27-2.563-14.956-17.604-14.983-17.718 c-0.701-3.098-3.152-5.498-6.265-6.134c-3.113-0.638-6.308,0.608-8.17,3.182C392.967,339.224,360.333,339.456,359.905,339.456z M443.315,372.167v-10.894c1.702,1.215,2.818,3.202,2.818,5.448S445.017,370.952,443.315,372.167z M457.383,125.748 c23.417,36.176,36.826,78.29,38.297,122.167h-88.767c-0.656-36.389-5.741-71.486-14.808-103.449 C416.96,139.529,439.121,133.22,457.383,125.748z M390.743,247.917h-82.741c-0.009-0.001-0.017,0-0.025,0 c-11.029-12.192-26.533-20.247-43.893-21.587v-69.52c39.671-0.395,77.954-3.694,112.062-9.427 C385.071,178.295,390.08,212.429,390.743,247.917z M319.43,332.335c0,4.755-3.212,8.764-7.579,9.997v-19.997 C316.218,323.57,319.43,327.58,319.43,332.335z M264.084,16.617c32.171,3.436,62.439,27.306,85.965,68.118 c8.256,14.321,15.345,30.143,21.189,47.115c-32.594,5.337-69.173,8.409-107.155,8.79V16.617z M258.957,242.28 c27.537,0,49.939,22.404,49.939,49.942v9.879c-0.054-0.043-0.111-0.081-0.166-0.124c-0.117-0.092-0.236-0.182-0.359-0.267 c-0.095-0.066-0.193-0.127-0.291-0.189c-0.121-0.077-0.241-0.153-0.367-0.223c-0.115-0.065-0.234-0.122-0.352-0.181 c-0.113-0.056-0.225-0.113-0.341-0.165c-0.142-0.063-0.289-0.115-0.434-0.17c-0.101-0.038-0.201-0.077-0.303-0.111 c-0.163-0.054-0.331-0.097-0.498-0.14c-0.074-0.021-0.147-0.046-0.223-0.064c-15.357-3.492-20.222-23.515-20.263-23.689 c-0.701-3.098-3.152-5.498-6.265-6.134c-3.112-0.64-6.308,0.608-8.17,3.182c-18.931,26.172-60.75,26.44-61.302,26.44 c-0.001,0-0.002,0-0.002,0c-0.011,0-0.019,0-0.029,0c-0.278,0-0.554,0.014-0.825,0.041c-0.085,0.01-0.167,0.027-0.252,0.039 c-0.183,0.025-0.369,0.047-0.549,0.083c-0.115,0.024-0.227,0.06-0.342,0.088c-0.144,0.036-0.291,0.068-0.431,0.111 c-0.131,0.041-0.257,0.094-0.385,0.141c-0.117,0.043-0.239,0.081-0.355,0.129c-0.148,0.063-0.289,0.137-0.43,0.206 c-0.092,0.045-0.185,0.084-0.275,0.133c-0.146,0.078-0.282,0.168-0.422,0.254c-0.08,0.051-0.164,0.096-0.244,0.149 c-0.13,0.088-0.253,0.186-0.379,0.282c-0.081,0.061-0.165,0.117-0.244,0.182c-0.074,0.061-0.143,0.13-0.216,0.194v-10.077 c0-27.538,22.402-49.941,49.939-49.941H258.957z M121.257,247.916c0.663-35.494,5.674-69.635,14.601-100.55 c34.156,5.741,72.48,9.047,112.058,9.445v69.602c-16.947,1.587-32.054,9.589-42.859,21.557c-0.294-0.032-0.593-0.053-0.896-0.053 H121.257z M201.447,322.252v20.166c-4.533-1.121-7.906-5.209-7.906-10.083C193.54,327.462,196.914,323.374,201.447,322.252z M247.916,16.617v124.023c-37.892-0.384-74.5-3.468-107.146-8.815c5.843-16.962,12.929-32.774,21.181-47.09 C185.477,43.923,215.745,20.053,247.916,16.617z M189.813,25.462c-15.418,12.66-29.567,29.853-41.871,51.198 c-9.143,15.861-16.92,33.437-23.249,52.292c-22.901-4.469-43.408-10.12-60.488-16.782 C95.167,70.985,139.067,40.054,189.813,25.462z M54.69,125.786c18.216,7.444,40.381,13.729,65.212,18.661 c-9.073,31.967-14.158,67.072-14.816,103.469H16.32C17.815,203.01,31.71,161.193,54.69,125.786z M106.783,418.248 c1.657,0.199,3.34,0.313,5.05,0.313h7.374c1.708,0,3.391-0.114,5.047-0.314v4.481l-9.006,9.346l-8.465-8.243V418.248z M119.207,402.393h-7.374c-14.285,0-25.906-11.621-25.906-25.905v-21.38c10.529-1.139,29.175-4.826,43.555-16.835 c3.22,5.522,8.2,11.494,15.629,14.981v23.235C145.11,390.772,133.49,402.393,119.207,402.393z M140.008,321.938 c-0.701-3.098-3.152-5.498-6.265-6.134c-3.113-0.638-6.309,0.608-8.169,3.182c-14.65,20.249-47.31,20.471-47.704,20.471 c-0.01,0-0.018,0-0.027,0c-0.278,0-0.554,0.014-0.825,0.041c-0.085,0.01-0.167,0.027-0.252,0.039 c-0.183,0.024-0.369,0.047-0.549,0.083c-0.115,0.024-0.227,0.06-0.342,0.088c-0.144,0.036-0.29,0.068-0.431,0.111 c-0.087,0.027-0.169,0.064-0.255,0.094v-5.269c0-21.126,17.186-38.313,38.312-38.313h3.867c21.125,0,38.309,17.187,38.309,38.313 v5.204h-0.002c-0.155-0.051-0.316-0.089-0.474-0.13c-0.071-0.018-0.14-0.043-0.212-0.06 C143.721,337.095,140.035,322.051,140.008,321.938z M16.319,264.084h88.765c0.101,5.568,0.316,11.129,0.623,16.645 c-26.361,3.791-46.689,26.519-46.689,53.914v14.305c-5.185,4.196-8.51,10.6-8.51,17.771c0,12.084,9.433,21.983,21.32,22.785 c3.216,9.862,9.982,18.128,18.786,23.292v4.553l-8.831,3.458C41.322,378.056,18.263,322.727,16.319,264.084z M69.757,361.093 v11.252c-1.85-1.192-3.081-3.266-3.081-5.624C66.676,364.361,67.907,362.287,69.757,361.093z M149.532,467.678v28.154h-9.474 H98.697h-8.623h-7.238H44.417v-20.891c0-22.539,17.62-29.071,18.305-29.314c0.125-0.042,0.25-0.087,0.373-0.136l30.491-11.941 l16.202,15.78c1.51,1.471,3.534,2.293,5.64,2.293c0.042,0,0.085,0,0.128-0.001c2.151-0.033,4.201-0.924,5.692-2.474l15.304-15.882 l18.917,7.585C151.882,448.192,149.532,457.083,149.532,467.678z M227.53,397.036l-42.908,16.803 c-5.464,1.88-13.026,6.217-19.734,13.369l-24.467-9.812v-4.598c8.809-5.166,15.577-13.439,18.793-23.308 c11.762-0.929,21.053-10.776,21.053-22.771c0-7.134-3.289-13.51-8.424-17.708v-14.368c0-28.519-22.03-51.974-49.963-54.279 c-0.308-5.393-0.521-10.833-0.624-16.281h73.06c-4.036,8.543-6.304,18.078-6.304,28.137v18.864 c-6.457,4.851-10.642,12.57-10.642,21.251c0,14.51,11.697,26.334,26.157,26.556c3.794,12.814,12.533,23.52,24.001,29.899V397.036z M161.279,372.168V361.27c1.703,1.216,2.82,3.203,2.82,5.45S162.982,370.953,161.279,372.168z M269.601,402.678 c0,0.011,0,0.022,0,0.03v0.49l-13.246,13.745l-12.657-12.328v-10.172c2.715,0.453,5.499,0.7,8.342,0.7h9.222 c2.841,0,5.624-0.247,8.339-0.698V402.678z M261.262,378.976h-9.222c-18.982,0-34.425-15.442-34.425-34.424v-28.542 c12.902-1.188,38.414-5.673,57.049-22.402c3.933,7.443,10.526,16.084,21.02,20.566v30.377 C295.683,363.534,280.242,378.976,261.262,378.976z M347.334,427.263c-6.707-7.17-14.278-11.522-19.754-13.412l-41.812-16.769 v-8.292c11.471-6.38,20.208-17.089,24.001-29.907c14.307-0.396,25.827-12.149,25.827-26.547c0-8.631-4.14-16.311-10.534-21.167 v-18.948c0-10.058-2.267-19.594-6.304-28.137h71.983c-0.105,5.47-0.319,10.932-0.631,16.351 c-27.506,2.729-49.06,25.998-49.06,54.208v14.307c-5.184,4.195-8.508,10.599-8.508,17.77c0,12.085,9.433,21.984,21.32,22.785 c3.216,9.862,9.983,18.128,18.787,23.292v4.553L347.334,427.263z M351.795,361.093v11.252c-1.851-1.192-3.081-3.266-3.081-5.624 C348.714,364.361,349.945,362.286,351.795,361.093z M467.757,495.832h-45.661h-41.36h-8.625h-7.238h-2.232v-28.155 c0-10.552-2.329-19.413-5.893-26.736l18.876-7.392l16.2,15.78c1.51,1.471,3.534,2.294,5.641,2.294c0.042,0,0.085,0,0.127-0.001 c2.151-0.033,4.201-0.924,5.693-2.474l15.305-15.882l30.426,12.2c0.142,0.058,0.221,0.088,0.368,0.138 c0.75,0.266,18.374,6.799,18.374,29.338V495.832z"/></symbol><symbol id="arrows-1" viewBox="0 0 407.437 407.437"><title>arrows-1</title><polygon points="386.258,91.567 203.718,273.512 21.179,91.567 0,112.815 203.718,315.87 407.437,112.815 "/></symbol><symbol id="direction" viewBox="0 0 28.074 28.074"><title>direction</title><path style="fill:#030104;" d="M15.401,25.522H2.813V2.567h12.588v8.406c0.854,0,1.672,0,2.425,0V0H0.489v28.074h17.337v-6.235 c-0.756,0-1.572,0-2.425,0V25.522z"/><path style="fill:#030104;" d="M27.404,15.938c-0.6-0.596-6.307-6.123-6.307-6.123s-0.76-0.765-0.76,0.247 c0,1.017,0,2.632,0,2.632s-0.44,0-1.113,0c-2.078,0-9.248,0-10.797,0c0,0-0.362-0.013-0.362,0.457s0,5.803,0,6.46 c0,0.66,0.432,0.544,0.432,0.544c1.593,0,8.63,0,10.78,0c0.752,0,1.241,0,1.241,0s0,2.014,0,2.849 c0,0.832,0.724,0.066,0.724,0.066l6.111-6.283C27.353,16.787,27.84,16.374,27.404,15.938z"/></symbol><symbol id="left-arrow-chevron" viewBox="0 0 370.814 370.814"><title>left-arrow-chevron</title><polygon points="292.92,24.848 268.781,0 77.895,185.401 268.781,370.814 292.92,345.961 127.638,185.401 "/></symbol><symbol id="world" viewBox="0 0 31.416 31.416"><title>world</title><path d="M28.755,6.968l-0.47,0.149L25.782,7.34l-0.707,1.129l-0.513-0.163L22.57,6.51l-0.289-0.934L21.894,4.58l-1.252-1.123 l-1.477-0.289l-0.034,0.676l1.447,1.412l0.708,0.834L20.49,6.506l-0.648-0.191L18.871,5.91l0.033-0.783l-1.274-0.524l-0.423,1.841 l-1.284,0.291l0.127,1.027l1.673,0.322l0.289-1.641l1.381,0.204l0.642,0.376h1.03l0.705,1.412l1.869,1.896l-0.137,0.737 l-1.507-0.192l-2.604,1.315l-1.875,2.249l-0.244,0.996h-0.673l-1.254-0.578l-1.218,0.578l0.303,1.285l0.53-0.611l0.932-0.029 l-0.065,1.154l0.772,0.226l0.771,0.866l1.259-0.354l1.438,0.227l1.67,0.449l0.834,0.098l1.414,1.605l2.729,1.605l-1.765,3.372 l-1.863,0.866l-0.707,1.927l-2.696,1.8l-0.287,1.038c6.892-1.66,12.019-7.851,12.019-15.253 C31.413,12.474,30.433,9.465,28.755,6.968z"/><path d="M17.515,23.917l-1.144-2.121l1.05-2.188l-1.05-0.314l-1.179-1.184l-2.612-0.586l-0.867-1.814v1.077h-0.382l-2.251-3.052 v-2.507L7.43,8.545L4.81,9.012H3.045L2.157,8.43L3.29,7.532L2.16,7.793c-1.362,2.326-2.156,5.025-2.156,7.916 c0,8.673,7.031,15.707,15.705,15.707c0.668,0,1.323-0.059,1.971-0.137l-0.164-1.903c0,0,0.721-2.826,0.721-2.922 C18.236,26.357,17.515,23.917,17.515,23.917z"/><path d="M5.84,5.065l2.79-0.389l1.286-0.705l1.447,0.417l2.312-0.128l0.792-1.245l1.155,0.19l2.805-0.263L19.2,2.09l1.09-0.728 l1.542,0.232l0.562-0.085C20.363,0.553,18.103,0,15.708,0C10.833,0,6.474,2.222,3.596,5.711h0.008L5.84,5.065z M16.372,1.562 l1.604-0.883l1.03,0.595l-1.491,1.135l-1.424,0.143l-0.641-0.416L16.372,1.562z M11.621,1.691l0.708,0.295l0.927-0.295 l0.505,0.875l-2.14,0.562l-1.029-0.602C10.591,2.526,11.598,1.878,11.621,1.691z"/></symbol><symbol id="delete" viewBox="0 0 400 400"><title>delete</title><path d="M199.991,0C89.715,0,0.002,89.72,0.002,200c0,110.279,89.713,200,199.989,200c110.281,0,200.007-89.721,200.007-200 C399.998,89.72,310.272,0,199.991,0z M199.991,373.77c-95.81,0-173.759-77.953-173.759-173.77 c0-95.817,77.949-173.77,173.759-173.77c95.821,0,173.775,77.953,173.775,173.77C373.768,295.816,295.812,373.77,199.991,373.77z"/><path d="M279.476,186.884l-158.958,0.003c-7.242,0-13.115,5.873-13.115,13.115c0,7.243,5.873,13.116,13.115,13.116l158.958-0.005 c7.243,0,13.115-5.872,13.115-13.114S286.719,186.884,279.476,186.884z"/></symbol><symbol id="round-add-button" viewBox="0 0 400 400"><title>round-add-button</title><path d="M199.995,0C89.716,0,0,89.72,0,200c0,110.279,89.716,200,199.995,200C310.277,400,400,310.279,400,200 C400,89.72,310.277,0,199.995,0z M199.995,373.77C104.182,373.77,26.23,295.816,26.23,200c0-95.817,77.951-173.77,173.765-173.77 c95.817,0,173.772,77.953,173.772,173.77C373.769,295.816,295.812,373.77,199.995,373.77z"/><path d="M279.478,186.884h-66.363V120.52c0-7.243-5.872-13.115-13.115-13.115s-13.115,5.873-13.115,13.115v66.368h-66.361 c-7.242,0-13.115,5.873-13.115,13.115c0,7.243,5.873,13.115,13.115,13.115h66.358v66.362c0,7.242,5.872,13.114,13.115,13.114 c7.242,0,13.115-5.872,13.115-13.114v-66.365h66.367c7.241,0,13.114-5.873,13.114-13.115 C292.593,192.757,286.72,186.884,279.478,186.884z"/></symbol><symbol id="edit" viewBox="0 0 129 129"><title>edit</title><path d="m119.2,114.3h-109.4c-2.3,0-4.1,1.9-4.1,4.1s1.9,4.1 4.1,4.1h109.5c2.3,0 4.1-1.9 4.1-4.1s-1.9-4.1-4.2-4.1z"/><path d="m5.7,78l-.1,19.5c0,1.1 0.4,2.2 1.2,3 0.8,0.8 1.8,1.2 2.9,1.2l19.4-.1c1.1,0 2.1-0.4 2.9-1.2l67-67c1.6-1.6 1.6-4.2 0-5.9l-19.2-19.4c-1.6-1.6-4.2-1.6-5.9-1.77636e-15l-13.4,13.5-53.6,53.5c-0.7,0.8-1.2,1.8-1.2,2.9zm71.2-61.1l13.5,13.5-7.6,7.6-13.5-13.5 7.6-7.6zm-62.9,62.9l49.4-49.4 13.5,13.5-49.4,49.3-13.6,.1 .1-13.5z"/></symbol><symbol id="black-envelope" viewBox="0 0 27.857 27.857"><title>black-envelope</title><path style="fill:#010002;" d="M2.203,5.331l10.034,7.948c0.455,0.36,1.082,0.52,1.691,0.49c0.608,0.03,1.235-0.129,1.69-0.49 l10.034-7.948c0.804-0.633,0.622-1.152-0.398-1.152H13.929H2.604C1.583,4.179,1.401,4.698,2.203,5.331z"/><path style="fill:#010002;" d="M26.377,7.428l-10.965,8.325c-0.41,0.308-0.947,0.458-1.482,0.451 c-0.536,0.007-1.073-0.144-1.483-0.451L1.48,7.428C0.666,6.811,0,7.142,0,8.163v13.659c0,1.021,0.836,1.857,1.857,1.857h12.071H26 c1.021,0,1.857-0.836,1.857-1.857V8.163C27.857,7.142,27.191,6.811,26.377,7.428z"/></symbol><symbol id="facebook-logo" viewBox="0 0 470.513 470.513"><title>facebook-logo</title><path d="M271.521,154.17v-40.541c0-6.086,0.28-10.8,0.849-14.13c0.567-3.335,1.857-6.615,3.859-9.853 c1.999-3.236,5.236-5.47,9.706-6.708c4.476-1.24,10.424-1.858,17.85-1.858h40.539V0h-64.809c-37.5,0-64.433,8.897-80.803,26.691 c-16.368,17.798-24.551,44.014-24.551,78.658v48.82h-48.542v81.086h48.539v235.256h97.362V235.256h64.805l8.566-81.086H271.521z"/></symbol><symbol id="linkedin-letters" viewBox="0 0 438.536 438.535"><title>linkedin-letters</title><rect x="5.424" y="145.895" width="94.216" height="282.932"/><path d="M408.842,171.739c-19.791-21.604-45.967-32.408-78.512-32.408c-11.991,0-22.891,1.475-32.695,4.427 c-9.801,2.95-18.079,7.089-24.838,12.419c-6.755,5.33-12.135,10.278-16.129,14.844c-3.798,4.337-7.512,9.389-11.136,15.104 v-40.232h-93.935l0.288,13.706c0.193,9.139,0.288,37.307,0.288,84.508c0,47.205-0.19,108.777-0.572,184.722h93.931V270.942 c0-9.705,1.041-17.412,3.139-23.127c4-9.712,10.037-17.843,18.131-24.407c8.093-6.572,18.13-9.855,30.125-9.855 c16.364,0,28.407,5.662,36.117,16.987c7.707,11.324,11.561,26.98,11.561,46.966V428.82h93.931V266.664 C438.529,224.976,428.639,193.336,408.842,171.739z"/><path d="M53.103,9.708c-15.796,0-28.595,4.619-38.4,13.848C4.899,32.787,0,44.441,0,58.529c0,13.891,4.758,25.505,14.275,34.829 c9.514,9.325,22.078,13.99,37.685,13.99h0.571c15.99,0,28.887-4.661,38.688-13.99c9.801-9.324,14.606-20.934,14.417-34.829 c-0.19-14.087-5.047-25.742-14.561-34.973C81.562,14.323,68.9,9.708,53.103,9.708z"/></symbol><symbol id="youtube-play-button" viewBox="0 0 90 90"><title>youtube-play-button</title><path id="YouTube__x28_alt_x29_" d="M90,26.958C90,19.525,83.979,13.5,76.55,13.5h-63.1C6.021,13.5,0,19.525,0,26.958v36.084 C0,70.475,6.021,76.5,13.45,76.5h63.1C83.979,76.5,90,70.475,90,63.042V26.958z M36,60.225V26.33l25.702,16.947L36,60.225z"/></symbol><symbol id="mobile-phone" viewBox="0 0 792 792"><title>mobile-phone</title><path d="M521.806,792c0,0,71.889,0,71.889-71.997V71.997C593.694,0,521.806,0,521.806,0H270.194c0,0-71.889,0-71.889,71.997 v648.006C198.306,792,270.194,792,270.194,792H521.806z M396,762.022c-19.841,0-35.944-16.104-35.944-35.944 c0-19.842,16.103-35.944,35.944-35.944c19.842,0,35.944,16.103,35.944,35.944C431.944,745.919,415.842,762.022,396,762.022z M342.083,43.888c0-4.457,2.121-7.944,4.78-7.944h98.272c2.624,0,4.781,3.559,4.781,7.944v2.121c0,4.457-2.157,7.944-4.781,7.944 h-98.272c-2.624,0-4.78-3.559-4.78-7.944V43.888z M234.25,89.861h323.5v575.111h-323.5V89.861z"/></symbol><symbol id="refresh-button" viewBox="0 0 294.843 294.843"><title>refresh-button</title><path d="M147.421,0c-3.313,0-6,2.687-6,6s2.687,6,6,6c74.671,0,135.421,60.75,135.421,135.421s-60.75,135.421-135.421,135.421 S12,222.093,12,147.421c0-50.804,28.042-96.902,73.183-120.305c2.942-1.525,4.09-5.146,2.565-8.088 c-1.525-2.942-5.147-4.09-8.088-2.565C30.524,41.937,0,92.118,0,147.421c0,81.289,66.133,147.421,147.421,147.421 s147.421-66.133,147.421-147.421S228.71,0,147.421,0z"/><path d="M205.213,71.476c-16.726-12.747-36.71-19.484-57.792-19.484c-52.62,0-95.43,42.81-95.43,95.43s42.81,95.43,95.43,95.43 c25.49,0,49.455-9.926,67.479-27.951c2.343-2.343,2.343-6.142,0-8.485c-2.343-2.343-6.143-2.343-8.485,0 c-15.758,15.758-36.709,24.436-58.994,24.436c-46.003,0-83.43-37.426-83.43-83.43s37.426-83.43,83.43-83.43 c36.894,0,69.843,24.715,80.126,60.104c0.924,3.182,4.253,5.011,7.436,4.087c3.182-0.925,5.012-4.254,4.087-7.436 C233.422,101.308,221.398,83.809,205.213,71.476z"/><path d="M217.773,129.262c-2.344-2.343-6.143-2.343-8.485,0c-2.343,2.343-2.343,6.142,0,8.485l22.57,22.571 c1.125,1.125,2.651,1.757,4.243,1.757s3.118-0.632,4.243-1.757l22.57-22.571c2.343-2.343,2.343-6.142,0-8.485 c-2.344-2.343-6.143-2.343-8.485,0l-18.328,18.328L217.773,129.262z"/></symbol><symbol id="compass" viewBox="0 0 294.843 294.843"><title>compass</title><path d="M251.663,43.225C223.836,15.414,186.818,0.064,147.431,0c-0.08,0-0.157,0-0.236,0c-34.112,0-67.342,11.912-93.59,33.555 c-2.557,2.108-2.92,5.89-0.813,8.446c2.108,2.557,5.89,2.92,8.446,0.813C85.344,22.938,115.86,12,147.195,12 c0.071,0,0.146,0,0.217,0c74.677,0.12,135.431,60.87,135.431,135.421c0,74.671-60.75,135.421-135.421,135.421 C72.833,282.843,12.083,222.09,12,147.415c-0.018-15.792,2.652-31.257,7.935-45.965c1.12-3.119-0.5-6.555-3.619-7.675 c-3.116-1.12-6.555,0.5-7.675,3.619C2.888,113.411-0.019,130.245,0,147.428c0.09,81.285,66.223,147.415,147.421,147.415 c81.289,0,147.421-66.133,147.421-147.421C294.843,108.057,279.508,71.052,251.663,43.225z"/><path d="M190.804,46.997c-13.72-5.935-28.316-8.944-43.383-8.944c-60.306,0-109.368,49.063-109.368,109.368 S87.116,256.79,147.421,256.79S256.79,207.727,256.79,147.421c0-3.313-2.687-6-6-6h-21.943c-3.313,0-6,2.687-6,6s2.687,6,6,6 h15.753c-2.989,48.919-42.258,88.189-91.178,91.178v-15.753c0-3.313-2.687-6-6-6s-6,2.687-6,6v15.753 c-48.919-2.989-88.189-42.258-91.178-91.178h15.753c3.313,0,6-2.687,6-6s-2.687-6-6-6H50.244 c2.989-48.919,42.258-88.189,91.178-91.178v15.753c0,3.313,2.687,6,6,6s6-2.687,6-6V50.241c11.293,0.681,22.241,3.281,32.619,7.77 c3.041,1.317,6.573-0.083,7.889-3.125S193.845,48.313,190.804,46.997z"/><path d="M190.003,97.098l-53.101,21.508c-4.137,1.514-7.931,3.92-11.139,7.128c-2.748,2.748-4.857,5.893-6.343,9.25 c-0.15,0.255-0.289,0.519-0.404,0.801l-21.989,54.289c-0.905,2.233-0.386,4.791,1.318,6.495c1.147,1.148,2.682,1.758,4.244,1.758 c0.757,0,1.521-0.144,2.25-0.438l54.294-21.983c0.262-0.106,0.508-0.234,0.746-0.372c3.423-1.513,6.575-3.655,9.3-6.381 c2.904-2.904,5.098-6.252,6.593-9.826c0.018-0.042,0.043-0.078,0.06-0.12l21.983-54.294c0.904-2.233,0.385-4.791-1.319-6.495 C194.794,96.712,192.236,96.193,190.003,97.098z M147.471,128.741c4.996,0,9.692,1.945,13.224,5.478 c7.292,7.292,7.292,19.156,0,26.448c-3.532,3.532-8.229,5.478-13.224,5.478c-4.995,0-9.691-1.945-13.224-5.478 c-7.292-7.292-7.292-19.156,0-26.448c1.72-1.72,3.72-3.056,5.893-3.983c0.026-0.01,0.052-0.017,0.078-0.027l0.432-0.175 C142.796,129.193,145.098,128.741,147.471,128.741z M120.965,162.935c1.298,2.221,2.895,4.314,4.797,6.216 c1.884,1.884,3.973,3.488,6.213,4.802l-18.507,7.494L120.965,162.935z M173.946,131.892c-1.292-2.2-2.879-4.273-4.765-6.159 c-1.866-1.866-3.932-3.458-6.147-4.765l18.343-7.43L173.946,131.892z"/></symbol><symbol id="shape" viewBox="0 0 294.843 294.843"><title>shape</title><path d="M199.628,175.487c-0.632-1.977,0.067-4.131,1.741-5.358l37.422-27.455c5.958-4.371,8.333-11.736,6.049-18.763 c-2.283-7.028-8.533-11.591-15.922-11.625l-46.413-0.215c-2.076-0.01-3.908-1.34-4.558-3.311l-14.547-44.076 c-2.316-7.017-8.586-11.55-15.975-11.551h0c-7.389,0-13.66,4.534-15.976,11.55l-6.557,19.859c-1.039,3.146,0.669,6.54,3.816,7.578 c3.147,1.041,6.539-0.669,7.579-3.816l6.557-19.859c1.014-3.073,3.762-3.312,4.581-3.312c0.818,0,3.566,0.239,4.58,3.312 l14.547,44.077c2.27,6.875,8.658,11.516,15.897,11.55l46.413,0.215c3.236,0.015,4.313,2.555,4.565,3.333 c0.253,0.778,0.875,3.465-1.734,5.379l-37.423,27.455c-5.837,4.283-8.277,11.793-6.072,18.689l14.143,44.222 c0.986,3.083-1.097,4.892-1.759,5.372c-0.662,0.481-3.025,1.904-5.652,0.013l-37.677-27.114c-5.878-4.229-13.776-4.229-19.654,0 l-37.684,27.119c-2.627,1.89-4.991,0.468-5.652-0.012c-0.662-0.481-2.745-2.289-1.76-5.371l14.139-44.229 c2.205-6.895-0.236-14.405-6.072-18.688l-37.421-27.455c-2.609-1.914-1.987-4.602-1.734-5.379c0.253-0.778,1.33-3.318,4.565-3.333 l46.416-0.215c3.313-0.016,5.987-2.714,5.972-6.028c-0.016-3.304-2.699-5.972-6-5.972c-0.009,0-0.019,0-0.028,0l-46.416,0.215 c-7.389,0.034-13.639,4.597-15.922,11.625c-2.283,7.028,0.091,14.393,6.048,18.764l37.421,27.455 c1.673,1.228,2.373,3.381,1.741,5.358l-14.138,44.229c-2.25,7.038,0.159,14.392,6.137,18.734c3,2.179,6.442,3.269,9.886,3.269 c3.419,0,6.84-1.075,9.829-3.225l37.683-27.119c1.685-1.213,3.95-1.213,5.635,0l37.677,27.114c5.998,4.316,13.736,4.3,19.715-0.044 c5.979-4.343,8.387-11.697,6.136-18.736L199.628,175.487z"/><path d="M147.421,0C66.133,0,0,66.133,0,147.421s66.133,147.421,147.421,147.421c3.313,0,6-2.687,6-6s-2.687-6-6-6 C72.75,282.843,12,222.093,12,147.421S72.75,12,147.421,12s135.421,60.75,135.421,135.421c0,46.48-23.42,89.182-62.65,114.228 c-2.793,1.783-3.612,5.493-1.829,8.286c1.783,2.793,5.492,3.612,8.286,1.829c42.7-27.262,68.193-73.745,68.193-124.342 C294.843,66.133,228.71,0,147.421,0z"/></symbol><symbol id="play-button" viewBox="0 0 294.843 294.843"><title>play-button</title><path d="M278.527,79.946c-10.324-20.023-25.38-37.704-43.538-51.132c-2.665-1.97-6.421-1.407-8.392,1.257s-1.407,6.421,1.257,8.392 c16.687,12.34,30.521,28.586,40.008,46.983c9.94,19.277,14.98,40.128,14.98,61.976c0,74.671-60.75,135.421-135.421,135.421 S12,222.093,12,147.421S72.75,12,147.421,12c3.313,0,6-2.687,6-6s-2.687-6-6-6C66.133,0,0,66.133,0,147.421 s66.133,147.421,147.421,147.421s147.421-66.133,147.421-147.421C294.842,123.977,289.201,100.645,278.527,79.946z"/><path d="M109.699,78.969c-1.876,1.067-3.035,3.059-3.035,5.216v131.674c0,3.314,2.687,6,6,6s6-2.686,6-6V94.74l88.833,52.883 l-65.324,42.087c-2.785,1.795-3.589,5.508-1.794,8.293c1.796,2.786,5.508,3.59,8.294,1.794l73.465-47.333 c1.746-1.125,2.786-3.073,2.749-5.15c-0.037-2.077-1.145-3.987-2.93-5.05L115.733,79.029 C113.877,77.926,111.575,77.902,109.699,78.969z"/></symbol><symbol id="connections" viewBox="0 0 294.843 294.843"><title>connections</title><path d="M199.922,210.005c-23.39,0-42.418,19.029-42.418,42.418s19.028,42.419,42.418,42.419s42.419-19.029,42.419-42.419 S223.312,210.005,199.922,210.005z M199.922,282.843c-16.772,0-30.418-13.646-30.418-30.419s13.646-30.418,30.418-30.418 c16.773,0,30.419,13.646,30.419,30.418S216.696,282.843,199.922,282.843z"/><path d="M129.567,109.567c1.535,0,3.071-0.586,4.242-1.757l35.781-35.78c7.708,7.894,18.454,12.808,30.333,12.808 c23.39,0,42.419-19.029,42.419-42.418S223.312,0,199.922,0s-42.418,19.029-42.418,42.419c0,7.15,1.785,13.888,4.923,19.804 l-37.102,37.101c-2.344,2.343-2.344,6.142-0.001,8.485C126.496,108.981,128.031,109.567,129.567,109.567z M199.922,12 c16.773,0,30.419,13.646,30.419,30.419s-13.646,30.418-30.419,30.418c-16.772,0-30.418-13.646-30.418-30.418S183.15,12,199.922,12z "/><path d="M157.908,214.935l-35.364-35.363c9.048-7.785,14.794-19.306,14.794-32.151c0-23.39-19.028-42.419-42.418-42.419 s-42.419,19.029-42.419,42.419S71.531,189.84,94.92,189.84c6.139,0,11.972-1.321,17.244-3.678l37.259,37.258 c1.171,1.171,2.707,1.757,4.242,1.757s3.071-0.586,4.242-1.757C160.251,221.077,160.251,217.278,157.908,214.935z M64.501,147.421 c0-16.773,13.646-30.419,30.419-30.419c16.772,0,30.418,13.646,30.418,30.419S111.693,177.84,94.92,177.84 C78.147,177.84,64.501,164.194,64.501,147.421z"/></symbol><symbol id="magnifying-glass" viewBox="0 0 470 470"><title>magnifying-glass</title><path d="M325,0c-79.953,0-145,65.047-145,145c0,37.284,14.149,71.323,37.354,97.039l-9.915,9.915l-8.183-8.265 c-0.179-0.225-0.368-0.445-0.576-0.653c-0.194-0.194-0.398-0.374-0.607-0.543l-6.438-6.502c-2.915-2.944-7.664-2.966-10.606-0.053 c-2.944,2.915-2.968,7.663-0.054,10.607l1.785,1.803L2.197,428.913c-2.929,2.929-2.929,7.678,0,10.606l28.284,28.284 c1.465,1.464,3.385,2.197,5.304,2.197s3.839-0.732,5.304-2.197l180.369-180.369l1.732,1.75c1.467,1.481,3.398,2.223,5.33,2.223 c1.907,0,3.814-0.723,5.276-2.17c2.944-2.915,2.968-7.663,0.054-10.607l-15.856-16.016l9.968-9.968 C253.678,275.851,287.717,290,325,290c79.953,0,145-65.047,145-145S404.953,0,325,0z M35.784,451.894l-17.678-17.678 l175.208-175.208l17.589,17.766L35.784,451.894z M325,275c-71.683,0-130-58.318-130-130S253.318,15,325,15s130,58.318,130,130 S396.683,275,325,275z"/><path d="M325,30c-63.411,0-115,51.589-115,115s51.589,115,115,115c25.191,0,49.114-8,69.181-23.134 c3.308-2.494,3.967-7.197,1.473-10.504c-2.494-3.306-7.197-3.967-10.504-1.472C367.705,238.046,346.906,245,325,245 c-55.141,0-100-44.86-100-100S269.86,45,325,45s100,44.86,100,100c0,21.907-6.954,42.706-20.11,60.149 c-2.494,3.307-1.835,8.01,1.472,10.504s8.011,1.834,10.505-1.472C432,194.115,440,170.193,440,145C440,81.589,388.411,30,325,30z"/><path d="m325,205c-4.143,0-7.5,3.358-7.5,7.5s3.357,7.5 7.5,7.5c41.355,0 75-33.645 75-75s-33.645-75-75-75c-14.157,0-27.962,3.983-39.922,11.518-3.505,2.208-4.556,6.839-2.348,10.344 2.209,3.505 6.841,4.557 10.344,2.348 9.563-6.025 20.602-9.21 31.926-9.21 33.084,0 60,26.916 60,60s-26.916,60-60,60z"/><path d="m261.518,105.079c-7.535,11.959-11.518,25.764-11.518,39.921 0,4.142 3.357,7.5 7.5,7.5s7.5-3.358 7.5-7.5c0-11.324 3.185-22.363 9.209-31.925 2.208-3.505 1.157-8.136-2.348-10.344-3.504-2.207-8.135-1.158-10.343,2.348z"/></symbol><symbol id="twitter-logo-silhouette" viewBox="0 0 612 612"><title>twitter-logo-silhouette</title><path style="fill:#010002;" d="M612,116.258c-22.525,9.981-46.694,16.75-72.088,19.772c25.929-15.527,45.777-40.155,55.184-69.411 c-24.322,14.379-51.169,24.82-79.775,30.48c-22.907-24.437-55.49-39.658-91.63-39.658c-69.334,0-125.551,56.217-125.551,125.513 c0,9.828,1.109,19.427,3.251,28.606C197.065,206.32,104.556,156.337,42.641,80.386c-10.823,18.51-16.98,40.078-16.98,63.101 c0,43.559,22.181,81.993,55.835,104.479c-20.575-0.688-39.926-6.348-56.867-15.756v1.568c0,60.806,43.291,111.554,100.693,123.104 c-10.517,2.83-21.607,4.398-33.08,4.398c-8.107,0-15.947-0.803-23.634-2.333c15.985,49.907,62.336,86.199,117.253,87.194 c-42.947,33.654-97.099,53.655-155.916,53.655c-10.134,0-20.116-0.612-29.944-1.721c55.567,35.681,121.536,56.485,192.438,56.485 c230.948,0,357.188-191.291,357.188-357.188l-0.421-16.253C573.872,163.526,595.211,141.422,612,116.258z"/></symbol><symbol id="trophy" viewBox="0 0 480 480"><title>trophy</title><g> <g> <path d="M128,164c-26.472,0-48,21.528-48,48s21.528,48,48,48s48-21.528,48-48S154.472,164,128,164z M128,244 c-17.648,0-32-14.352-32-32s14.352-32,32-32s32,14.352,32,32S145.648,244,128,244z" fill="#FFFFFF"/> </g> </g><g> <g> <path d="M304,292c-22.056,0-40,17.944-40,40c0,22.056,17.944,40,40,40c22.056,0,40-17.944,40-40C344,309.944,326.056,292,304,292z M304,356c-13.232,0-24-10.768-24-24s10.768-24,24-24s24,10.768,24,24S317.232,356,304,356z" fill="#FFFFFF"/> </g> </g><g> <g> <path d="M475.064,20.608c-1-0.416-2.032-0.536-3.064-0.536V20H136v0.072c-1.032,0-2.072,0.128-3.064,0.544 C129.952,21.848,128,24.768,128,28v80c0,2.12,0.84,4.16,2.344,5.656l9.52,9.52c-32.816,1.56-65.872-3.328-97.128-14.696 c-2.464-0.88-5.184-0.536-7.328,0.968C33.272,110.944,32,113.392,32,116v99.184C32,278.192,59.176,338.24,105.552,380H80 c-19.32,0-35.48,13.768-39.192,32H40c-22.056,0-40,17.944-40,40c0,4.416,3.584,8,8,8h240c4.416,0,8-3.584,8-8 c0-22.056-17.944-40-40-40h-0.808c-3.712-18.232-19.88-32-39.192-32h-25.552C196.824,338.24,224,278.192,224,215.184v-7.872l32,32 v39.176c-14.688,13.192-24,32.264-24,53.512c0,39.696,32.304,72,72,72s72-32.304,72-72c0-21.248-9.312-40.32-24-53.512v-39.176 l125.656-125.656C479.16,112.16,480,110.12,480,108V28C480,24.768,478.048,21.848,475.064,20.608z M452.688,36l-16,16H171.312 l-16-16H452.688z M420.688,68l-16,16H203.312l-16-16H420.688z M144,47.312l63.216,63.216c-4.4,1.48-8.832,2.856-13.296,4.08 L144,64.688V47.312z M144,87.312l31.552,31.552c-4.952,0.96-9.912,1.816-14.904,2.472L144,104.688V87.312z M176,396 c13.232,0,24,10.768,24,24c0,4.416,3.584,8,8,8h8c10.432,0,19.328,6.688,22.632,16H17.368c3.304-9.312,12.2-16,22.632-16h8 c4.416,0,8-3.584,8-8c0-13.232,10.768-24,24-24H176z M208,215.184c0,63.624-29.8,124.04-80,162.816 c-50.2-38.768-80-99.192-80-162.816v-88.016c51.992,16.416,108.008,16.416,160,0V215.184z M219.312,100h169.376L304,184.688 L219.312,100z M307.312,228L224,144.688v-17.376L324.688,228H307.312z M336,244v23.6c-9.656-4.816-20.496-7.6-32-7.6 c-11.504,0-22.344,2.784-32,7.6V244H336z M224,184.688v-17.376L284.688,228h-17.376L224,184.688z M360,332c0,30.88-25.12,56-56,56 s-56-25.12-56-56s25.12-56,56-56S360,301.12,360,332z M464,104.688l-120,120L335.312,216L464,87.312V104.688z M464,64.688 l-140,140L315.312,196L464,47.312V64.688z" fill="#FFFFFF"/> </g> </g><g> <g> <rect x="120" y="276" width="16" height="16" fill="#FFFFFF"/> </g> </g><g> <g> <rect x="88" y="276" width="16" height="16" fill="#FFFFFF"/> </g> </g><g> <g> <rect x="152" y="276" width="16" height="16" fill="#FFFFFF"/> </g> </g></symbol><symbol id="handshake" viewBox="0 0 491.064 491.064"><title>handshake</title><g> <g> <path d="M61.408,133.532c-13.232,0-24,10.768-24,24s10.768,24,24,24s24-10.768,24-24S74.64,133.532,61.408,133.532z M61.408,165.532c-4.408,0-8-3.592-8-8s3.592-8,8-8s8,3.592,8,8S65.816,165.532,61.408,165.532z"/> </g> </g><g> <g> <path d="M491.064,203.188l-11.312-11.312l-114.48,114.48c-0.432-0.488-0.776-1.04-1.24-1.512l-67.312-67.312l10.344-10.344 l-11.312-11.312L272,239.628c-12.728,12.72-32.432,14.48-47.096,5.272l58.136-57.68c0.008-0.008,0.008-0.016,0.016-0.024l152-152 l-11.312-11.312L277.408,170.22l-10.344-10.344c-1.496-1.504-3.536-2.344-5.656-2.344H232.72l-13.656-13.656l-112-112 L95.752,43.188l74.344,74.344l-102.32,102.32l-56.96-52.216L0,179.436l93.408,85.616v20.48c0,2.12,0.84,4.16,2.344,5.656 l34.6,34.6c-3.16,4.264-4.944,9.368-4.944,14.776c0,13.472,10.736,24.408,24.088,24.88c0.464,13.056,10.944,23.536,24,24 c0.464,13.056,10.944,23.536,24,24c0.472,13.352,11.416,24.088,24.88,24.088c3.4,0,6.696-0.696,9.736-1.984l0.608,0.608 c6.04,6.048,14.08,9.376,22.632,9.376c8.552,0,16.584-3.328,22.624-9.376l86.056-86.056c6.048-6.048,9.376-14.08,9.376-22.624 c0-2.048-0.216-4.064-0.592-6.04L491.064,203.188z M79.584,230.676l101.824-101.832l20.688,20.688L101.168,250.46L79.584,230.676z M156.72,346.908c-1.696,1.688-3.944,2.624-6.344,2.624c-4.944,0-8.968-4.024-8.968-8.968c0-2.4,0.936-4.648,2.624-6.344 l38.064-38.064c1.696-1.688,3.944-2.624,6.344-2.624c4.944,0,8.968,4.024,8.968,8.968c0,2.4-0.936,4.648-2.624,6.344 L156.72,346.908z M180.72,370.908c-1.696,1.688-3.944,2.624-6.344,2.624c-4.944,0-8.968-4.024-8.968-8.968 c0-2.4,0.936-4.648,2.624-6.344l38.064-38.064c1.696-1.688,3.944-2.624,6.344-2.624c4.944,0,8.968,4.024,8.968,8.968 c0,2.4-0.936,4.648-2.624,6.344L180.72,370.908z M204.72,394.908c-1.696,1.688-3.944,2.624-6.344,2.624 c-4.944,0-8.968-4.024-8.968-8.968c0-2.4,0.936-4.648,2.624-6.344l38.064-38.064c1.696-1.688,3.944-2.624,6.344-2.624 c4.944,0,8.968,4.024,8.968,8.968c0,2.4-0.936,4.648-2.624,6.344L204.72,394.908z M228.72,418.908 c-1.696,1.688-3.944,2.624-6.344,2.624c-4.944,0-8.968-4.024-8.968-8.968c0-2.4,0.936-4.648,2.624-6.344l38.064-38.064 c1.696-1.688,3.944-2.624,6.344-2.624c4.944,0,8.968,4.024,8.968,8.968c0,2.4-0.936,4.648-2.624,6.344L228.72,418.908z M352.72,338.788l-86.056,86.056c-5.816,5.816-15.736,5.976-21.864,0.616l33.304-33.304c4.704-4.712,7.304-10.984,7.304-17.656 c0-13.472-10.736-24.408-24.088-24.88c-0.464-13.056-10.944-23.536-24-24c-0.464-13.056-10.944-23.536-24-24 c-0.472-13.352-11.416-24.088-24.88-24.088c-6.672,0-12.944,2.6-17.656,7.312l-29.376,29.376l-32-32v-17.376l104-104 l10.344,10.344c1.496,1.504,3.536,2.344,5.656,2.344h28.688l7.976,7.976l-58.8,58.344c-1.512,1.504-2.368,3.56-2.36,5.696 c0.008,2.136,0.864,4.184,2.384,5.68c21.032,20.72,55.144,20.592,76.016-0.296l2.096-2.088l67.312,67.312 c3.024,3.024,4.688,7.04,4.688,11.32C357.408,331.756,355.744,335.764,352.72,338.788z"/> </g> </g><g> <g> <path d="M55.784,349.044l-14.04,7.68c2.632,4.808,5.48,9.6,8.464,14.232l13.456-8.656C60.88,357.98,58.232,353.524,55.784,349.044 z"/> </g> </g><g> <g> <path d="M169.936,447.98l-5.608,14.984c5.128,1.92,10.416,3.68,15.728,5.232l4.496-15.352 C179.616,451.396,174.704,449.764,169.936,447.98z"/> </g> </g><g> <g> <path d="M115.952,418.452l-9.608,12.8c4.4,3.304,8.984,6.488,13.608,9.464l8.656-13.456 C124.304,424.484,120.04,421.524,115.952,418.452z"/> </g> </g><g> <g> <path d="M141.88,435.156l-7.68,14.032c4.816,2.632,9.8,5.136,14.816,7.432l6.664-14.544 C151.008,439.932,146.368,437.604,141.88,435.156z"/> </g> </g><g> <g> <path d="M92.648,398.244l-11.32,11.304c3.888,3.896,7.968,7.696,12.12,11.296l10.488-12.088 C100.064,405.404,96.272,401.86,92.648,398.244z"/> </g> </g><g> <g> <path d="M72.448,374.948l-12.8,9.6c3.312,4.416,6.808,8.752,10.392,12.888l12.088-10.488C78.8,383.1,75.544,379.06,72.448,374.948 z"/> </g> </g><g> <g> <path d="M29.952,260.98l-15.96,1.136c0.384,5.48,0.976,11.016,1.752,16.464l15.84-2.256 C30.864,271.244,30.312,266.084,29.952,260.98z"/> </g> </g><g> <g> <path d="M13.992,229.004c-0.392,5.44-0.584,11-0.584,16.528v0.024l16-0.024c0-5.152,0.184-10.336,0.544-15.392L13.992,229.004z"/> </g> </g><g> <g> <path d="M34.304,291.484l-15.632,3.4c1.168,5.384,2.544,10.784,4.088,16.048l15.352-4.496 C36.68,301.532,35.4,296.5,34.304,291.484z"/> </g> </g><g> <g> <path d="M42.976,321.052l-14.992,5.6c1.92,5.136,4.048,10.28,6.336,15.28l14.552-6.648 C46.744,330.62,44.76,325.836,42.976,321.052z"/> </g> </g><g> <g> <path d="M441.944,335.276c-2.144,4.672-4.472,9.312-6.928,13.8l14.04,7.68c2.632-4.816,5.136-9.8,7.432-14.816L441.944,335.276z"/> </g> </g><g> <g> <path d="M427.136,362.34c-2.784,4.32-5.752,8.576-8.816,12.664l12.8,9.608c3.296-4.384,6.48-8.968,9.472-13.608L427.136,362.34z"/> </g> </g><g> <g> <path d="M408.624,387.004c-3.352,3.872-6.888,7.672-10.512,11.288l11.304,11.32c3.896-3.888,7.696-7.968,11.296-12.12 L408.624,387.004z"/> </g> </g><g> <g> <path d="M452.72,306.396c-1.448,4.92-3.08,9.84-4.864,14.624l14.984,5.6c1.928-5.144,3.68-10.44,5.232-15.728L452.72,306.396z"/> </g> </g><g> <g> <path d="M459.24,276.284c-0.728,5.088-1.648,10.192-2.728,15.176l15.64,3.384c1.16-5.352,2.144-10.832,2.92-16.304L459.24,276.284 z"/> </g> </g><g> <g> <path d="M386.816,408.812c-3.856,3.344-7.896,6.6-12.008,9.688l9.6,12.8c4.408-3.304,8.744-6.8,12.888-10.392L386.816,408.812z"/> </g> </g><g> <g> <path d="M199.496,456.652l-3.384,15.632c5.352,1.16,10.832,2.144,16.304,2.92l2.256-15.832 C209.584,458.644,204.48,457.724,199.496,456.652z"/> </g> </g><g> <g> <path d="M461.408,245.532c0,5.144-0.176,10.336-0.536,15.416l15.96,1.128c0.384-5.464,0.576-11.032,0.576-16.544H461.408z"/> </g> </g><g> <g> <path d="M276.184,459.356c-5.072,0.72-10.232,1.272-15.344,1.632l1.136,15.96c5.48-0.384,11.016-0.976,16.464-1.752 L276.184,459.356z"/> </g> </g><g> <g> <path d="M245.408,461.532c-5.144,0-10.32-0.176-15.4-0.536l-1.128,15.96c5.456,0.384,11.024,0.576,16.536,0.576L245.408,461.532z"/> </g> </g><g> <g> <path d="M362.16,427.292c-4.288,2.76-8.744,5.408-13.248,7.872l7.68,14.04c4.832-2.648,9.616-5.488,14.224-8.456L362.16,427.292z"/> </g> </g><g> <g> <path d="M335.144,442.068c-4.664,2.128-9.448,4.12-14.224,5.896l5.592,14.992c5.136-1.92,10.28-4.048,15.28-6.336L335.144,442.068 z"/> </g> </g><g> <g> <path d="M306.296,452.836c-4.904,1.432-9.928,2.712-14.952,3.808l3.4,15.632c5.384-1.168,10.784-2.544,16.048-4.088 L306.296,452.836z"/> </g> </g><g> <g> <path d="M338.728,33.82l-7.048,14.368c4.44,2.176,9.008,4.632,13.576,7.296l8.064-13.824 C348.416,38.804,343.504,36.164,338.728,33.82z"/> </g> </g><g> <g> <path d="M245.408,13.532l-3.344,0.024l0.232,16l3.112-0.024c4.224,0,8.352,0.096,12.384,0.288l0.752-15.984 C254.264,13.636,249.896,13.532,245.408,13.532z"/> </g> </g><g> <g> <path d="M307.68,21.716l-4.488,15.36c4.84,1.416,9.704,3.072,14.456,4.928l5.832-14.896 C318.288,25.076,312.976,23.268,307.68,21.716z"/> </g> </g><g> <g> <path d="M275.032,15.172l-1.856,15.888c5.168,0.608,10.272,1.408,15.168,2.384l3.12-15.696 C286.16,16.692,280.632,15.828,275.032,15.172z"/> </g> </g><g> <g> <path d="M161.176,29.292c-5.128,2-10.24,4.208-15.2,6.568l6.856,14.456c4.624-2.192,9.392-4.256,14.168-6.12L161.176,29.292z"/> </g> </g><g> <g> <path d="M192.816,19.524c-5.368,1.248-10.752,2.696-15.992,4.32l4.728,15.288c4.872-1.512,9.88-2.864,14.88-4.024L192.816,19.524z "/> </g> </g><g> <g> <path d="M225.528,14.372c-5.496,0.472-11.032,1.136-16.448,1.992l2.496,15.808c5.032-0.8,10.184-1.424,15.304-1.856 L225.528,14.372z"/> </g> </g></symbol><symbol id="graduation" viewBox="0 0 480.006 480.006"><title>graduation</title><g> <g> <path d="M392,304.001h-70.24c-4.392-4.872-10.696-8-17.76-8c-6.168,0-11.744,2.408-16,6.24c-4.256-3.84-9.832-6.24-16-6.24 c-6.168,0-11.744,2.408-16,6.24c-4.256-3.84-9.832-6.24-16-6.24c-6.168,0-11.744,2.408-16,6.24c-4.256-3.84-9.832-6.24-16-6.24 c-7.064,0-13.36,3.128-17.76,8H56c-4.416,0-8,3.584-8,8v56c0,22.056,17.944,40,40,40h64v40c0,2.12,0.84,4.16,2.344,5.656 L168,467.313v12.688h16v-16c0-2.12-0.84-4.16-2.344-5.656L168,444.689v-91.68c13.784,3.56,24,16.104,24,30.992v40h16v-16h104v72 h16v-72h96c4.416,0,8-3.584,8-8v-56C432,321.945,414.056,304.001,392,304.001z M184,342.497c-7.072-4.104-15.256-6.496-24-6.496 c-4.416,0-8,3.584-8,8v48H88c-13.232,0-24-10.768-24-24v-48h120V342.497z M296,320.001c0-4.408,3.592-8,8-8c4.408,0,8,3.592,8,8 v32c0,4.408-3.592,8-8,8c-4.408,0-8-3.592-8-8V320.001z M264,320.001c0-4.408,3.592-8,8-8c4.408,0,8,3.592,8,8v32 c0,4.408-3.592,8-8,8c-4.408,0-8-3.592-8-8V320.001z M232,320.001c0-4.408,3.592-8,8-8s8,3.592,8,8v32c0,4.408-3.592,8-8,8 c-4.408,0-8-3.592-8-8V320.001z M200,352.001v-32c0-4.408,3.592-8,8-8s8,3.592,8,8v32c0,4.408-3.592,8-8,8 S200,356.409,200,352.001z M416,392.001H208v-8c0-2.76-0.288-5.44-0.736-8.072c0.248,0.008,0.488,0.072,0.736,0.072 c6.168,0,11.744-2.408,16-6.24c4.256,3.84,9.832,6.24,16,6.24c6.168,0,11.744-2.408,16-6.24c4.256,3.84,9.832,6.24,16,6.24 c6.168,0,11.744-2.408,16-6.24c4.256,3.84,9.832,6.24,16,6.24c13.232,0,24-10.768,24-24v-32h64c13.232,0,24,10.768,24,24V392.001z "/> </g> </g><g> <g> <path d="M479.16,228.417L464,198.113V78.337l10-2.584c3.536-0.92,6-4.104,6-7.752s-2.464-6.832-6-7.744l-232-60 c-1.312-0.336-2.696-0.336-4.008,0l-232,60C2.464,61.169,0,64.353,0,68.001s2.464,6.832,6,7.744l106,27.416v112.84 c0,3.672,2.496,6.872,6.056,7.76l50.8,12.696c-1.008,2.032-1.144,4.432-0.248,6.6c1.24,2.992,4.16,4.944,7.392,4.944h16v16 c0,3.232,1.952,6.152,4.936,7.392c0.992,0.408,2.032,0.608,3.064,0.608c2.08,0,4.128-0.816,5.656-2.344L240,235.313l34.344,34.344 c1.528,1.528,3.576,2.344,5.656,2.344c1.032,0,2.072-0.2,3.064-0.608c2.984-1.24,4.936-4.16,4.936-7.392v-16h16 c3.232,0,6.152-1.952,7.392-4.936c0.896-2.176,0.76-4.568-0.248-6.6l50.8-12.696c3.56-0.896,6.056-4.096,6.056-7.768v-112.84 l80-20.688v115.64l-15.16,30.312c-1.128,2.256-1.128,4.904,0,7.16l16,32c1.36,2.704,4.128,4.416,7.16,4.416 c3.032,0,5.8-1.712,7.16-4.424l16-32C480.288,233.321,480.288,230.673,479.16,228.417z M208,244.689v-4.688c0-4.416-3.584-8-8-8 h-4.688l14.296-14.296c3.936,4.648,8.792,8.464,14.44,10.936L208,244.689z M216,192.001c0-13.232,10.768-24,24-24s24,10.768,24,24 s-10.768,24-24,24S216,205.233,216,192.001z M280,232.001c-4.416,0-8,3.584-8,8v4.688l-16.048-16.048 c5.648-2.472,10.504-6.288,14.44-10.936l14.296,14.296H280z M352,209.753l-53.544,13.384l-20.176-20.176 c1.008-3.504,1.72-7.128,1.72-10.96c0-22.056-17.944-40-40-40c-22.056,0-40,17.944-40,40c0,3.832,0.712,7.456,1.72,10.968 l-20.176,20.176L128,209.753V107.297l110,28.448c0.656,0.168,1.328,0.256,2,0.256s1.344-0.088,2-0.256l110-28.448V209.753z M240,119.737L39.952,68.001L240,16.265l200.048,51.736L240,119.737z M456,246.113l-7.056-14.112L456,217.889l7.056,14.112 L456,246.113z"/> </g> </g><g> <g> <rect x="48" y="272.001" width="16" height="16"/> </g> </g><g> <g> <rect x="80" y="272.001" width="16" height="16"/> </g> </g><g> <g> <rect x="112" y="272.001" width="16" height="16"/> </g> </g></symbol><symbol id="creativity" viewBox="0 0 480 480"><title>creativity</title><g> <g> <path d="M376,136C376,61.008,314.992,0,240,0S104,61.008,104,136c0,39.56,17.496,77.12,47.272,102.84 C146.8,243.208,144,249.272,144,256c0,6.168,2.408,11.744,6.24,16c-3.84,4.256-6.24,9.832-6.24,16c0,6.168,2.408,11.744,6.24,16 c-3.84,4.256-6.24,9.832-6.24,16c0,10.416,6.712,19.216,16,22.528V400c0,2.152,0.88,4.16,2.36,5.64l-0.016,0.016l72,72 c1.56,1.56,3.608,2.344,5.656,2.344c2.048,0,4.096-0.784,5.656-2.344l72-72l-0.016-0.016c1.48-1.48,2.36-3.488,2.36-5.64v-57.472 c9.288-3.312,16-12.112,16-22.528c0-6.168-2.408-11.744-6.24-16c3.84-4.256,6.24-9.832,6.24-16c0-6.168-2.408-11.744-6.24-16 c3.84-4.256,6.24-9.832,6.24-16c0-6.728-2.8-12.792-7.272-17.16C358.504,213.12,376,175.56,376,136z M240,460.688L227.312,448 h25.376L240,460.688z M268.688,432h-57.376l-30.752-30.76l11.44-7.624l19.56,13.04c2.688,1.792,6.184,1.792,8.872,0L240,393.616 l19.56,13.04c2.688,1.792,6.184,1.792,8.872,0L288,393.616l11.44,7.632L268.688,432z M304,385.048l-11.56-7.704 c-2.688-1.792-6.184-1.792-8.872,0L264,390.384l-19.56-13.04c-2.688-1.792-6.184-1.792-8.872,0L216,390.384l-19.56-13.04 c-2.688-1.792-6.184-1.792-8.872,0L176,385.048V344h128V385.048z M312,328H168c-4.408,0-8-3.592-8-8c0-4.408,3.592-8,8-8h144 c4.408,0,8,3.592,8,8C320,324.408,316.408,328,312,328z M312,296H168c-4.408,0-8-3.592-8-8c0-4.408,3.592-8,8-8h144 c4.408,0,8,3.592,8,8C320,292.408,316.408,296,312,296z M312,264H168c-4.408,0-8-3.592-8-8c0-4.408,3.592-8,8-8h143.968 l0.096,0.016C316.44,248.048,320,251.608,320,256C320,260.408,316.408,264,312,264z M214.976,143.016 c1.464,1.184,3.248,1.776,5.024,1.776s3.56-0.592,5.024-1.776C234.544,135.336,240,124.024,240,112 c0-1.848-0.176-3.672-0.424-5.48c-0.072-0.52-0.168-1.024-0.264-1.544c-0.248-1.376-0.568-2.736-0.968-4.072 c-0.128-0.448-0.24-0.896-0.384-1.336c-0.568-1.704-1.232-3.368-2.024-4.976c-0.144-0.288-0.32-0.56-0.472-0.856 c-0.696-1.336-1.48-2.632-2.328-3.88c-0.144-0.216-0.248-0.456-0.4-0.672c4.68-1.552,9.864-1.552,14.544,0 c-0.152,0.216-0.256,0.456-0.4,0.672c-0.848,1.256-1.624,2.544-2.328,3.88c-0.152,0.288-0.328,0.56-0.472,0.856 c-0.792,1.608-1.464,3.28-2.024,4.976c-0.144,0.44-0.256,0.888-0.384,1.336c-0.392,1.336-0.712,2.696-0.968,4.072 c-0.096,0.512-0.192,1.024-0.264,1.544c-0.264,1.808-0.44,3.632-0.44,5.48c0,12.024,5.456,23.336,14.976,31.016 c1.464,1.184,3.248,1.776,5.024,1.776s3.56-0.592,5.024-1.776C274.544,135.336,280,124.024,280,112 c0-1.848-0.176-3.672-0.424-5.48c-0.072-0.52-0.168-1.024-0.264-1.544c-0.248-1.376-0.568-2.736-0.968-4.072 c-0.128-0.448-0.24-0.896-0.392-1.336c-0.568-1.704-1.232-3.368-2.024-4.976c-0.144-0.304-0.328-0.584-0.488-0.88 c-0.688-1.32-1.456-2.592-2.288-3.832c-0.152-0.232-0.264-0.48-0.424-0.704C275.072,88.4,277.504,88,280,88 c12.784,0,24,12.024,24,25.744c0,11.76-5.184,22.832-14.224,30.36l-30.896,25.752c-1.824,1.52-2.88,3.768-2.88,6.144v56h-32v-56 c0-2.376-1.056-4.624-2.88-6.144l-30.896-25.752c-9.04-7.536-14.224-18.6-14.224-30.36C176,100.024,187.216,88,200,88 c2.488,0,4.928,0.4,7.264,1.176c-0.16,0.224-0.272,0.48-0.424,0.704c-0.84,1.24-1.6,2.512-2.288,3.832 c-0.152,0.296-0.336,0.576-0.488,0.88c-0.792,1.608-1.456,3.272-2.024,4.976c-0.144,0.44-0.256,0.896-0.392,1.336 c-0.392,1.336-0.712,2.696-0.968,4.072c-0.096,0.512-0.192,1.024-0.264,1.544c-0.24,1.808-0.416,3.632-0.416,5.48 C200,124.024,205.456,135.336,214.976,143.016z M216,112c0-1.592,0.224-3.152,0.536-4.688c0.08-0.368,0.16-0.744,0.256-1.104 c0.384-1.496,0.872-2.968,1.544-4.368c0.056-0.104,0.12-0.208,0.176-0.312c0.416-0.824,0.976-1.576,1.488-2.352 c0.512,0.776,1.072,1.528,1.488,2.352c0.048,0.104,0.12,0.2,0.176,0.304c0.672,1.392,1.16,2.864,1.544,4.368 c0.096,0.368,0.176,0.736,0.256,1.104c0.312,1.544,0.536,3.104,0.536,4.696s-0.224,3.152-0.536,4.688 c-0.08,0.368-0.16,0.744-0.256,1.104c-0.384,1.496-0.872,2.968-1.544,4.368c-0.048,0.104-0.12,0.208-0.176,0.312 c-0.416,0.824-0.976,1.576-1.488,2.352c-0.512-0.776-1.072-1.528-1.488-2.352c-0.056-0.104-0.128-0.208-0.176-0.312 c-0.672-1.4-1.16-2.872-1.544-4.368c-0.096-0.368-0.176-0.736-0.256-1.104C216.224,115.152,216,113.592,216,112z M256,112 c0-1.592,0.224-3.152,0.536-4.688c0.08-0.368,0.16-0.744,0.256-1.104c0.384-1.496,0.872-2.968,1.544-4.368 c0.056-0.104,0.12-0.208,0.176-0.312c0.416-0.824,0.976-1.576,1.488-2.352c0.512,0.776,1.072,1.528,1.488,2.352 c0.048,0.104,0.12,0.2,0.176,0.304c0.672,1.392,1.16,2.864,1.544,4.368c0.096,0.368,0.176,0.736,0.256,1.104 c0.312,1.544,0.536,3.104,0.536,4.696s-0.224,3.152-0.536,4.688c-0.08,0.368-0.16,0.744-0.256,1.104 c-0.384,1.496-0.872,2.968-1.544,4.368c-0.048,0.104-0.12,0.208-0.176,0.312c-0.416,0.824-0.976,1.576-1.488,2.352 c-0.512-0.776-1.072-1.528-1.488-2.352c-0.056-0.104-0.128-0.208-0.176-0.312c-0.672-1.4-1.16-2.872-1.544-4.368 c-0.096-0.368-0.176-0.736-0.256-1.104C256.224,115.152,256,113.592,256,112z M311.824,232H272v-52.256l28.016-23.352 C312.72,145.816,320,130.264,320,113.744C320,91.12,301.68,72,280,72c-7.104,0-13.912,1.952-20.024,5.576 c-12.312-7.136-27.624-7.136-39.944,0C213.912,73.952,207.104,72,200,72c-21.68,0-40,19.12-40,41.744 c0,16.52,7.28,32.072,19.984,42.656L208,179.744V232h-39.824C137.96,209.344,120,173.68,120,136c0-66.168,53.832-120,120-120 s120,53.832,120,120C360,173.68,342.04,209.344,311.824,232z"/> </g> </g><g> <g> <rect x="361.368" y="16.013" transform="matrix(0.7071 -0.7071 0.7071 0.7071 95.4905 278.5592)" width="45.256" height="16"/> </g> </g><g> <g> <rect x="375.986" y="225.358" transform="matrix(0.7071 -0.7071 0.7071 0.7071 -62.8857 344.1524)" width="16" height="45.256"/> </g> </g><g> <g> <rect x="400" y="128" width="48" height="16"/> </g> </g><g> <g> <rect x="88.002" y="1.376" transform="matrix(0.7071 -0.7071 0.7071 0.7071 11.1452 74.9142)" width="16" height="45.256"/> </g> </g><g> <g> <rect x="73.373" y="239.996" transform="matrix(0.7071 -0.7071 0.7071 0.7071 -147.2421 140.5192)" width="45.256" height="16"/> </g> </g><g> <g> <rect x="32" y="128" width="48" height="16"/> </g> </g><g> <g> <rect x="336" y="384" width="16" height="16"/> </g> </g><g> <g> <rect x="368" y="384" width="16" height="16"/> </g> </g><g> <g> <rect x="400" y="384" width="16" height="16"/> </g> </g><g> <g> <rect x="64" y="384" width="16" height="16"/> </g> </g><g> <g> <rect x="96" y="384" width="16" height="16"/> </g> </g><g> <g> <rect x="128" y="384" width="16" height="16"/> </g> </g></symbol><symbol id="helm" viewBox="0 0 512 512"><title>helm</title><g> <g> <path d="M363.247,172.742c-2.543-3.268-7.255-3.857-10.525-1.313c-3.269,2.544-3.856,7.256-1.313,10.525 c15.372,19.752,23.665,43.013,25.099,66.546h-65.432c-2.001-14.763-9.812-27.698-21.056-36.426l32.747-56.72 c2.472,1.645,4.902,3.388,7.278,5.237c3.269,2.545,7.981,1.956,10.525-1.313c2.544-3.27,1.956-7.981-1.313-10.525 c-53.862-41.916-130.925-37.079-179.254,11.251c-48.331,48.331-53.167,125.394-11.251,179.255 c1.479,1.899,3.689,2.894,5.924,2.894c1.61,0,3.232-0.516,4.601-1.581c3.269-2.544,3.856-7.256,1.313-10.525 c-15.372-19.752-23.665-43.013-25.099-66.546h65.432c2.001,14.763,9.812,27.698,21.056,36.426l-32.747,56.721 c-2.472-1.645-4.902-3.388-7.278-5.237c-3.268-2.543-7.981-1.955-10.525,1.313c-2.544,3.27-1.956,7.981,1.313,10.525 c24.534,19.093,53.882,28.485,83.135,28.485c34.969,0,69.803-13.421,96.119-39.736 C400.326,303.666,405.163,226.603,363.247,172.742z M309.784,147.844l-32.74,56.708c-6.496-2.667-13.598-4.148-21.044-4.148 c-7.446,0-14.548,1.481-21.043,4.148l-32.723-56.679C235.817,131.202,275.812,130.935,309.784,147.844z M135.499,248.5 c1.788-28.501,13.613-56.39,35.112-77.888c5.785-5.784,12.035-10.862,18.632-15.239l32.736,56.701 c-11.244,8.728-19.055,21.663-21.056,36.426H135.499z M215.403,256.001c0-22.385,18.211-40.597,40.597-40.597 s40.597,18.212,40.597,40.597S278.385,296.597,256,296.597S215.403,278.385,215.403,256.001z M202.217,364.157l32.74-56.708 c6.496,2.667,13.599,4.148,21.044,4.148s14.548-1.482,21.044-4.148l32.723,56.678 C276.183,380.799,236.188,381.066,202.217,364.157z M341.389,341.389c-5.785,5.784-12.035,10.862-18.632,15.239l-32.736-56.701 c11.244-8.728,19.055-21.663,21.056-36.426h65.424C374.713,292.002,362.888,319.891,341.389,341.389z"/> </g> </g><g> <g> <path d="M502.373,234.303c-6.118-5.537-14.338-8.236-22.548-7.421l-49.652,4.965c-6.399-46.371-30.939-87.027-66.214-114.545 l29.171-40.58c4.817-6.701,6.583-15.171,4.847-23.238c-1.736-8.067-6.831-15.061-13.977-19.186s-15.75-5.041-23.604-2.512 c-7.854,2.53-14.306,8.295-17.701,15.817l-20.53,45.492C301.73,84.766,279.394,80.162,256,80.162 c-23.394,0-45.73,4.604-66.165,12.934l-20.53-45.492c-3.395-7.522-9.846-13.287-17.701-15.817 c-7.854-2.528-16.457-1.615-23.604,2.512c-7.146,4.125-12.241,11.118-13.977,19.186c-1.736,8.067,0.03,16.537,4.847,23.238 l29.171,40.58c-35.275,27.518-59.815,68.174-66.214,114.545l-49.652-4.965c-8.207-0.819-16.429,1.884-22.548,7.421 C3.509,239.841,0,247.749,0,256.001s3.509,16.16,9.627,21.697c5.397,4.885,12.43,7.565,19.649,7.565 c0.964,0,1.932-0.048,2.899-0.145l49.652-4.965c6.399,46.371,30.939,87.027,66.214,114.545l-29.171,40.58 c-4.817,6.701-6.583,15.171-4.847,23.238c1.736,8.067,6.831,15.061,13.977,19.186c4.489,2.592,9.552,3.917,14.645,3.917 c3.014,0,6.039-0.465,8.959-1.405c7.854-2.53,14.306-8.295,17.701-15.817l20.53-45.492c20.435,8.33,42.771,12.934,66.165,12.934 c23.394,0,45.73-4.604,66.165-12.934l20.53,45.492c3.395,7.522,9.846,13.287,17.701,15.817c2.921,0.94,5.945,1.405,8.96,1.405 c5.091,0,10.155-1.325,14.644-3.917c7.146-4.125,12.241-11.118,13.977-19.186c1.736-8.067-0.03-16.537-4.847-23.238l-29.171-40.58 c35.275-27.518,59.815-68.174,66.214-114.545l49.652,4.965c0.968,0.097,1.934,0.145,2.899,0.145 c7.219,0,14.251-2.681,19.649-7.565c6.118-5.537,9.627-13.445,9.627-21.697S508.491,239.841,502.373,234.303z M80.402,265.223 l-49.719,4.97c-4.065,0.411-7.964-0.878-10.991-3.617C16.667,263.838,15,260.082,15,256.001s1.667-7.837,4.692-10.575 c3.026-2.739,6.926-4.023,10.991-3.617l49.719,4.972c-0.159,3.054-0.241,6.128-0.241,9.221 C80.161,259.095,80.243,262.169,80.402,265.223z M356.367,53.774c1.679-3.721,4.743-6.458,8.628-7.71 c3.886-1.249,7.97-0.815,11.505,1.225c3.535,2.041,5.954,5.361,6.813,9.352c0.859,3.989,0.02,8.013-2.363,11.326l-29.201,40.622 c-5.138-3.349-10.456-6.443-15.944-9.25L356.367,53.774z M131.05,67.966c-2.382-3.313-3.222-7.337-2.363-11.326 c0.858-3.99,3.278-7.311,6.813-9.352c3.535-2.039,7.621-2.474,11.505-1.225c3.885,1.252,6.949,3.989,8.628,7.71l20.563,45.564 c-5.489,2.807-10.807,5.901-15.944,9.25L131.05,67.966z M155.633,458.227c-1.679,3.721-4.743,6.458-8.628,7.71 c-3.885,1.249-7.971,0.815-11.505-1.225c-3.535-2.041-5.954-5.361-6.813-9.352c-0.859-3.989-0.02-8.013,2.363-11.326 l29.201-40.622c5.138,3.349,10.456,6.443,15.944,9.25L155.633,458.227z M380.95,444.035c2.382,3.313,3.222,7.337,2.363,11.326 c-0.858,3.99-3.278,7.311-6.813,9.352c-3.534,2.041-7.619,2.475-11.505,1.225c-3.885-1.252-6.949-3.989-8.628-7.71l-20.563-45.564 c5.489-2.807,10.807-5.901,15.944-9.25L380.95,444.035z M256,416.84c-88.687,0-160.839-72.152-160.839-160.839 S167.313,95.162,256,95.162s160.839,72.152,160.839,160.839S344.687,416.84,256,416.84z M492.308,266.576 c-3.026,2.739-6.927,4.021-10.991,3.617l-49.719-4.972c0.159-3.054,0.241-6.128,0.241-9.221s-0.082-6.167-0.241-9.221 l49.719-4.972c4.063-0.415,7.964,0.878,10.991,3.617c3.025,2.74,4.692,6.496,4.692,10.577S495.333,263.838,492.308,266.576z"/> </g> </g></symbol><symbol id="people" viewBox="0 0 512 512"><title>people</title><g> <g> <path d="M256,303.216c-53.744,0-97.468,43.724-97.468,97.468c0,30.532,14.115,57.825,36.159,75.71 c0.417,0.398,0.869,0.761,1.354,1.084c16.547,12.947,37.365,20.674,59.955,20.674c22.59,0,43.408-7.727,59.955-20.674 c0.486-0.323,0.937-0.686,1.354-1.084c22.043-17.885,36.159-45.178,36.159-75.71C353.468,346.939,309.744,303.216,256,303.216z M256,478.152c-15.809,0-30.522-4.77-42.791-12.933c6.576-16.892,23.632-28.603,42.791-28.603s36.215,11.711,42.791,28.603 C286.521,473.382,271.809,478.152,256,478.152z M238.384,400.683c0-8.786,7.147-15.933,15.932-15.933 c8.785,0,15.933,7.147,15.933,15.933s-7.148,15.933-15.933,15.933C245.531,416.616,238.384,409.469,238.384,400.683z M314.445,451.445c-6.835-12.9-18.034-23.157-31.474-29.111c4.564-6.026,7.277-13.526,7.277-21.65 c0-19.813-16.119-35.933-35.933-35.933c-19.813,0-35.932,16.119-35.932,35.933c0,8.65,3.073,16.594,8.183,22.802 c-12.343,6.08-22.599,15.856-29.012,27.96c-11.834-13.607-19.023-31.355-19.023-50.762c0-42.716,34.752-77.468,77.468-77.468 s77.468,34.752,77.468,77.468C333.468,420.09,326.279,437.838,314.445,451.445z"/> </g> </g><g> <g> <path d="M97.468,13.847C43.724,13.847,0,57.572,0,111.316c0,30.533,14.116,57.826,36.16,75.711 c0.416,0.397,0.867,0.759,1.351,1.082c16.547,12.948,37.366,20.675,59.957,20.675s43.41-7.728,59.957-20.676 c0.484-0.322,0.934-0.684,1.35-1.081c22.044-17.885,36.161-45.179,36.161-75.712C194.936,57.571,151.212,13.847,97.468,13.847z M97.468,188.785c-15.809-0.001-30.521-4.771-42.791-12.933c6.576-16.892,23.632-28.603,42.791-28.603 s36.215,11.711,42.791,28.603C127.989,184.015,113.278,188.785,97.468,188.785z M79.851,111.317 c0-8.785,7.147-15.933,15.933-15.933s15.933,7.147,15.933,15.933c0,8.786-7.148,15.932-15.933,15.932 C86.999,127.249,79.851,120.102,79.851,111.317z M155.913,162.077c-6.834-12.9-18.034-23.156-31.474-29.111 c4.564-6.025,7.277-13.526,7.277-21.65c0-19.813-16.119-35.933-35.933-35.933c-19.814,0-35.933,16.119-35.933,35.933 c0,8.649,3.073,16.594,8.183,22.802c-12.343,6.08-22.599,15.856-29.011,27.96C27.189,148.471,20,130.723,20,111.316 C20,68.6,54.752,33.848,97.468,33.848s77.468,34.752,77.468,77.468C174.936,130.722,167.747,148.47,155.913,162.077z"/> </g> </g><g> <g> <path d="M414.532,13.848c-53.744,0-97.468,43.724-97.468,97.468c0,30.534,14.117,57.828,36.162,75.713 c0.415,0.396,0.864,0.757,1.347,1.079c16.547,12.948,37.367,20.676,59.958,20.676s43.41-7.727,59.957-20.675 c0.485-0.323,0.935-0.685,1.352-1.082c22.044-17.884,36.16-45.178,36.16-75.711C512,57.572,468.276,13.848,414.532,13.848z M414.532,188.785c-15.81-0.001-30.522-4.771-42.791-12.933c6.576-16.892,23.631-28.603,42.791-28.603 s36.215,11.711,42.791,28.603C445.053,184.015,430.341,188.785,414.532,188.785z M396.915,111.317 c0-8.785,7.147-15.933,15.933-15.933s15.932,7.147,15.932,15.933c0,8.786-7.147,15.932-15.932,15.932 C404.063,127.249,396.915,120.102,396.915,111.317z M472.977,162.077c-6.835-12.9-18.034-23.157-31.474-29.111 c4.564-6.025,7.277-13.526,7.277-21.65c0-19.813-16.119-35.933-35.932-35.933s-35.933,16.119-35.933,35.933 c0,8.649,3.073,16.594,8.183,22.801c-12.344,6.08-22.599,15.856-29.012,27.96c-11.833-13.606-19.023-31.354-19.023-50.761 c0-42.716,34.752-77.468,77.468-77.468S492,68.6,492,111.316C492,130.722,484.811,148.47,472.977,162.077z"/> </g> </g><g> <g> <path d="M140.977,355.435c-0.041-0.035-0.085-0.074-0.121-0.104c-4.216-3.567-10.526-3.041-14.093,1.174 c-3.544,4.188-3.048,10.442,1.091,14.022c0.041,0.035,0.085,0.074,0.121,0.104c1.878,1.589,4.172,2.366,6.455,2.366 c2.84,0,5.661-1.203,7.639-3.541C145.611,365.269,145.116,359.014,140.977,355.435z"/> </g> </g><g> <g> <path d="M121.466,335.379c-0.02-0.025-0.104-0.125-0.124-0.149c-3.551-4.213-9.825-4.741-14.049-1.204 c-4.225,3.536-4.778,9.841-1.256,14.078l0.016,0.02c1.978,2.392,4.833,3.628,7.712,3.628c2.245,0,4.502-0.752,6.367-2.294 C124.388,345.938,124.986,339.635,121.466,335.379z"/> </g> </g><g> <g> <path d="M105.253,312.447c-0.021-0.037-0.093-0.158-0.115-0.194c-2.854-4.729-9.013-6.27-13.741-3.416 c-4.729,2.854-6.261,8.98-3.408,13.708l0.01,0.016c1.861,3.176,5.203,4.944,8.636,4.944c1.718,0,3.459-0.443,5.048-1.375 C106.448,323.338,108.046,317.212,105.253,312.447z"/> </g> </g><g> <g> <path d="M84.514,260.303c-1.164-5.399-6.482-8.834-11.881-7.67c-5.399,1.163-8.833,6.482-7.67,11.881 c0.008,0.037,0.038,0.17,0.046,0.207c1.055,4.641,5.18,7.793,9.747,7.793c0.731-0.001,1.476-0.082,2.221-0.251 C82.362,271.039,85.738,265.688,84.514,260.303z"/> </g> </g><g> <g> <path d="M92.804,287.183c-0.007-0.017-0.05-0.126-0.057-0.143c-2.065-5.12-7.885-7.593-13.006-5.532 c-5.121,2.061-7.601,7.888-5.543,13.01l0.017,0.042c1.557,3.923,5.319,6.314,9.298,6.314c1.227,0,2.476-0.228,3.686-0.708 C92.331,298.129,94.841,292.316,92.804,287.183z"/> </g> </g><g> <g> <path d="M385.238,356.506c-3.568-4.217-9.877-4.742-14.094-1.175c-0.035,0.029-0.079,0.067-0.119,0.102 c-4.142,3.579-4.637,9.834-1.093,14.023c1.978,2.338,4.799,3.541,7.639,3.541c2.282,0,4.576-0.777,6.455-2.366 c0.035-0.029,0.079-0.067,0.119-0.102C388.287,366.95,388.782,360.695,385.238,356.506z"/> </g> </g><g> <g> <path d="M432.267,281.505c-5.125-2.066-10.949,0.412-13.014,5.535c-0.007,0.017-0.05,0.126-0.057,0.143 c-2.033,5.124,0.481,10.88,5.599,12.927c1.208,0.483,2.454,0.711,3.682,0.711c3.976,0,7.75-2.396,9.325-6.302 C439.867,289.397,437.389,283.57,432.267,281.505z"/> </g> </g><g> <g> <path d="M404.749,334.031c-4.223-3.56-10.531-3.023-14.091,1.199c-0.021,0.024-0.104,0.125-0.125,0.149 c-3.507,4.242-2.896,10.483,1.329,14.011c1.86,1.553,4.125,2.309,6.38,2.309c2.867,0,5.72-1.221,7.706-3.577 C409.508,343.899,408.972,337.59,404.749,334.031z"/> </g> </g><g> <g> <path d="M439.407,252.668c-5.374-1.186-10.704,2.227-11.913,7.598l-0.005,0.021c-1.224,5.386,2.15,10.744,7.535,11.968 c0.746,0.169,1.491,0.25,2.226,0.25c4.564,0,8.688-3.146,9.742-7.786c0.008-0.037,0.038-0.17,0.046-0.207 C448.197,259.132,444.783,253.852,439.407,252.668z"/> </g> </g><g> <g> <path d="M420.591,308.857c-4.728-2.852-10.875-1.333-13.729,3.396c-0.022,0.036-0.094,0.158-0.115,0.194 c-2.793,4.765-1.202,10.903,3.563,13.696c1.592,0.934,3.336,1.378,5.056,1.378c3.427,0,6.761-1.763,8.621-4.936 C426.84,317.857,425.319,311.711,420.591,308.857z"/> </g> </g><g> <g> <path d="M441.974,223.061c-5.524-0.316-10.233,3.922-10.544,9.435c0,0.002-0.001,0.031-0.001,0.034 c-0.307,5.514,3.917,10.207,9.431,10.513c0.188,0.01,0.375,0.016,0.561,0.016c5.27,0,9.684-4.145,9.98-9.472 C451.707,228.074,447.487,223.369,441.974,223.061z"/> </g> </g><g> <g> <path d="M318.223,31.92l-0.095-0.031c-5.257-1.7-10.893,1.186-12.59,6.441c-1.699,5.255,1.185,10.892,6.441,12.59l0.095,0.031 c1.022,0.33,2.058,0.487,3.076,0.487c4.222,0,8.146-2.695,9.514-6.928C326.362,39.255,323.478,33.618,318.223,31.92z"/> </g> </g><g> <g> <path d="M287.492,24.702l-0.264-0.041c-5.468-0.803-10.578,2.969-11.382,8.433c-0.802,5.464,2.943,10.539,8.407,11.343 c0.548,0.09,1.094,0.134,1.632,0.134c4.81,0,9.051-3.48,9.855-8.381C296.635,30.74,292.942,25.597,287.492,24.702z"/> </g> </g><g> <g> <path d="M255.88,22.442l-0.247,0.002c-5.522,0.082-9.957,4.624-9.875,10.146c0.08,5.473,4.518,9.853,9.972,9.853 c0.05,0,0.1,0,0.15-0.001c5.523,0,10-4.477,10-10S261.403,22.442,255.88,22.442z"/> </g> </g><g> <g> <path d="M206.094,38.637c-1.602-5.286-7.188-8.272-12.47-6.67l-0.137,0.042c-5.279,1.624-8.213,7.211-6.589,12.49 c1.322,4.296,5.295,7.053,9.575,7.053c0.977,0,1.97-0.144,2.951-0.445C204.71,49.505,207.696,43.922,206.094,38.637z"/> </g> </g><g> <g> <path d="M235.801,33.473c-0.882-5.452-5.997-9.162-11.448-8.278l1.457,9.894l-1.476-9.891c-5.462,0.815-9.229,5.904-8.415,11.367 c0.741,4.962,5.008,8.525,9.878,8.525c0.491,0,0.989-0.036,1.489-0.111c0.041-0.006,0.179-0.028,0.219-0.034 C232.957,44.063,236.683,38.925,235.801,33.473z"/> </g> </g><g> <g> <path d="M80.357,230.32c-1.164-5.399-6.482-8.834-11.881-7.67c-5.399,1.163-8.833,6.482-7.67,11.881 c0.008,0.037,0.038,0.17,0.046,0.207c1.055,4.641,5.18,7.793,9.747,7.793c0.731,0,1.476-0.082,2.221-0.251 C78.205,241.056,81.581,235.705,80.357,230.32z"/> </g> </g></symbol><symbol id="creative" viewBox="0 0 480 480"><title>creative</title><g> <g> <path d="M412.792,372.032l-57.264-3.816l-29.136-29.136c5.8-4.384,9.608-11.264,9.608-19.08c0-6.168-2.408-11.744-6.24-16 c3.84-4.256,6.24-9.832,6.24-16c0-6.728-2.8-12.792-7.272-17.152C358.504,245.12,376,207.56,376,168c0-74.992-61.008-136-136-136 S104,93.008,104,168c0,39.56,17.496,77.12,47.272,102.848C146.8,275.208,144,281.272,144,288c0,6.168,2.408,11.744,6.24,16 c-3.84,4.256-6.24,9.832-6.24,16c0,8.288,4.224,15.6,10.624,19.912l-22.656,28.32l-64.456,4.032 C29.656,374.632,0,406.192,0,444.128V480h16v-35.872c0-29.504,23.064-54.048,52.504-55.888l64.752-4.048l53.528,45.88 C188.296,431.36,190.152,432,192,432c2.048,0,4.104-0.792,5.656-2.344l9.096-9.096l7.776,11.672l-21.392,35.656 c-0.744,1.24-1.136,2.656-1.136,4.112v8h16v-5.784l22.856-38.104c1.592-2.648,1.512-5.984-0.2-8.552l-12.36-18.544L240,387.312 l21.704,21.704l-12.36,18.544c-1.712,2.568-1.792,5.904-0.2,8.552L272,474.216V480h16v-8c0-1.456-0.392-2.872-1.144-4.12 l-21.392-35.656l7.776-11.672l9.096,9.096c1.56,1.56,3.608,2.352,5.664,2.352c1.68,0,3.368-0.52,4.8-1.6l61.624-46.216 L411.728,388C441.04,389.952,464,414.496,464,443.872V480h16v-36.128C480,406.104,450.48,374.544,412.792,372.032z M120,168 c0-66.168,53.832-120,120-120s120,53.832,120,120c0,37.672-17.952,73.344-48.168,96H272v-52.248l28.016-23.352 C312.72,177.816,320,162.264,320,145.744C320,123.12,301.68,104,280,104c-7.104,0-13.912,1.944-20.024,5.576 c-12.312-7.136-27.624-7.136-39.936,0C213.92,105.944,207.104,104,200,104c-21.68,0-40,19.12-40,41.744 c0,16.52,7.28,32.072,19.984,42.656L208,211.752V264h-39.832C137.952,241.344,120,205.672,120,168z M312,296H168 c-4.408,0-8-3.584-8-8c0-4.416,3.592-8,8-8h143.976l0.08,0.008c4.384,0.032,7.944,3.6,7.944,7.992 C320,292.416,316.408,296,312,296z M320,320c0,4.416-3.592,8-8,8H168c-4.408,0-8-3.584-8-8c0-4.416,3.592-8,8-8h144 C316.408,312,320,315.584,320,320z M214.976,175.024c1.464,1.176,3.248,1.776,5.024,1.776s3.56-0.592,5.024-1.776 c9.52-7.696,14.976-19,14.976-31.024c0-1.848-0.176-3.672-0.424-5.48c-0.072-0.52-0.168-1.024-0.264-1.544 c-0.248-1.384-0.576-2.736-0.968-4.08c-0.128-0.44-0.24-0.888-0.384-1.328c-0.568-1.704-1.24-3.376-2.032-4.984 c-0.136-0.28-0.312-0.544-0.456-0.824c-0.704-1.352-1.488-2.656-2.352-3.92c-0.144-0.208-0.248-0.448-0.392-0.656 c4.68-1.56,9.864-1.56,14.544,0c-0.144,0.208-0.248,0.448-0.392,0.656c-0.856,1.264-1.648,2.576-2.352,3.92 c-0.144,0.28-0.32,0.544-0.456,0.824c-0.792,1.616-1.464,3.28-2.032,4.984c-0.144,0.44-0.256,0.888-0.384,1.328 c-0.392,1.336-0.72,2.696-0.968,4.08c-0.096,0.512-0.192,1.024-0.264,1.544c-0.248,1.808-0.424,3.632-0.424,5.48 c0,12.024,5.456,23.328,14.976,31.024c1.464,1.176,3.248,1.776,5.024,1.776s3.56-0.592,5.024-1.776 c9.52-7.696,14.976-19,14.976-31.024c0-1.848-0.176-3.672-0.424-5.48c-0.072-0.52-0.168-1.024-0.264-1.544 c-0.248-1.376-0.576-2.736-0.968-4.072c-0.128-0.448-0.24-0.896-0.384-1.336c-0.568-1.704-1.232-3.368-2.024-4.976 c-0.152-0.304-0.336-0.584-0.488-0.888c-0.688-1.32-1.456-2.592-2.296-3.832c-0.152-0.224-0.264-0.48-0.424-0.704 C275.064,120.4,277.504,120,280,120c12.784,0,24,12.032,24,25.744c0,11.768-5.184,22.832-14.224,30.36l-30.896,25.752 c-1.824,1.52-2.88,3.768-2.88,6.144v56h-32v-56c0-2.376-1.056-4.624-2.88-6.152l-30.896-25.752 c-9.04-7.528-14.224-18.592-14.224-30.352C176,132.032,187.216,120,200,120c2.488,0,4.928,0.4,7.272,1.168 c-0.16,0.224-0.264,0.48-0.424,0.704c-0.84,1.24-1.6,2.512-2.296,3.832c-0.16,0.296-0.344,0.584-0.488,0.888 c-0.792,1.608-1.456,3.272-2.024,4.976c-0.144,0.44-0.256,0.888-0.384,1.336c-0.392,1.336-0.72,2.696-0.968,4.072 c-0.096,0.512-0.192,1.024-0.264,1.544c-0.248,1.808-0.424,3.632-0.424,5.48C200,156.024,205.456,167.328,214.976,175.024z M216,144c0-1.592,0.224-3.152,0.536-4.688c0.08-0.376,0.16-0.752,0.256-1.12c0.384-1.496,0.872-2.96,1.544-4.352 c0.056-0.12,0.144-0.232,0.2-0.36c0.408-0.816,0.96-1.552,1.464-2.32c0.504,0.768,1.056,1.504,1.464,2.32 c0.064,0.128,0.144,0.24,0.2,0.36c0.672,1.392,1.16,2.856,1.544,4.352c0.096,0.368,0.176,0.744,0.256,1.12 c0.312,1.536,0.536,3.096,0.536,4.688s-0.224,3.152-0.536,4.688c-0.08,0.376-0.16,0.752-0.256,1.12 c-0.384,1.496-0.872,2.96-1.544,4.352c-0.064,0.128-0.144,0.24-0.208,0.36c-0.408,0.808-0.96,1.544-1.464,2.312 c-0.504-0.768-1.056-1.504-1.464-2.312c-0.064-0.128-0.144-0.24-0.208-0.36c-0.672-1.392-1.16-2.856-1.544-4.352 c-0.096-0.368-0.176-0.744-0.256-1.12C216.224,147.152,216,145.592,216,144z M256,144c0-1.592,0.224-3.152,0.536-4.688 c0.08-0.376,0.16-0.752,0.256-1.12c0.384-1.496,0.872-2.96,1.544-4.352c0.056-0.12,0.144-0.232,0.2-0.36 c0.408-0.816,0.96-1.552,1.464-2.32c0.504,0.768,1.056,1.504,1.464,2.32c0.064,0.128,0.144,0.24,0.2,0.36 c0.672,1.392,1.16,2.856,1.544,4.352c0.096,0.368,0.176,0.744,0.256,1.12c0.312,1.536,0.536,3.096,0.536,4.688 s-0.224,3.152-0.536,4.688c-0.08,0.376-0.16,0.752-0.256,1.12c-0.384,1.496-0.872,2.96-1.544,4.352 c-0.064,0.128-0.144,0.24-0.208,0.36c-0.408,0.808-0.96,1.544-1.464,2.312c-0.504-0.768-1.056-1.504-1.464-2.312 c-0.064-0.128-0.144-0.24-0.208-0.36c-0.672-1.392-1.16-2.856-1.544-4.352c-0.096-0.368-0.176-0.744-0.256-1.12 C256.224,147.152,256,145.592,256,144z M191.584,413.104L147.08,374.96l22.944-28.688l56.824,31.568L191.584,413.104z M198.872,344h82.256L240,366.848L198.872,344z M288.752,413.44l-11.096-11.096l-24.496-24.496l57.456-31.92l29.208,29.208 L288.752,413.44z"/> </g> </g><g> <g> <rect x="364.687" y="56.001" transform="matrix(0.7071 -0.7071 0.7071 0.7071 64.8726 284.6176)" width="22.624" height="16"/> </g> </g><g> <g> <rect x="368.028" y="260.67" transform="matrix(0.7071 -0.7071 0.7071 0.7071 -82.184 345.5535)" width="16" height="22.624"/> </g> </g><g> <g> <rect x="400" y="160" width="16" height="16"/> </g> </g><g> <g> <rect x="95.996" y="52.692" transform="matrix(0.7071 -0.7071 0.7071 0.7071 -14.798 92.2826)" width="16" height="22.624"/> </g> </g><g> <g> <rect x="92.705" y="263.993" transform="matrix(0.7071 -0.7071 0.7071 0.7071 -161.8621 153.2158)" width="22.624" height="16"/> </g> </g><g> <g> <rect x="64" y="160" width="16" height="16"/> </g> </g><g> <g> <rect x="232" width="16" height="16"/> </g> </g></symbol><symbol id="arrows" viewBox="0 0 512 512"><title>arrows</title><path d="M256,0C114.615,0,0,114.615,0,256s114.615,256,256,256s256-114.615,256-256C511.833,114.685,397.315,0.167,256,0z M256,480C132.288,480,32,379.712,32,256S132.288,32,256,32s224,100.288,224,224C479.868,379.657,379.657,479.868,256,480z"/><polygon points="228.688,164.688 137.376,256 228.688,347.312 251.312,324.688 182.624,256 251.312,187.312 "/><rect x="288" y="144" width="32" height="32"/><rect x="288" y="208" width="32" height="32"/><rect x="288" y="272" width="32" height="32"/><rect x="288" y="336" width="32" height="32"/></symbol><symbol id="left-arrow" viewBox="0 0 506.56 506.56"><title>left-arrow</title><polygon points="250.56,80.416 0,253.28 250.56,426.144 250.56,285.28 218.56,285.28 218.56,365.2 56.336,253.28 218.56,141.36 218.56,253.28 378.56,253.28 378.56,221.28 250.56,221.28 "/><rect x="410.56" y="221.28" width="32" height="32"/><rect x="474.56" y="221.28" width="32" height="32"/></symbol><symbol id="up-arrow" viewBox="0 0 512 512"><title>up-arrow</title><polygon points="176.816,184.56 199.44,207.184 240,166.624 240,287.76 272,287.76 272,166.624 312.56,207.184 335.184,184.56 256,105.376 "/><rect x="240" y="319.76" width="32" height="32"/><rect x="240" y="383.76" width="32" height="32"/><path d="M256,0C114.615,0,0,114.615,0,256s114.615,256,256,256s256-114.615,256-256C511.833,114.685,397.315,0.167,256,0z M256,480C132.288,480,32,379.712,32,256S132.288,32,256,32s224,100.288,224,224C479.868,379.657,379.657,479.868,256,480z"/></symbol><symbol id="instagram" viewBox="0 0 68 68"><title>instagram</title><g transform="translate(0,-952.36218)"> <path d="M18,952.4c-10,0-18,8-18,18v32c0,10,8,18,18,18h32c10,0,18-8,18-18v-32c0-10-8-18-18-18L18,952.4L18,952.4z M54,962.4 c2.2,0,4,1.8,4,4c0,2.2-1.8,4-4,4c-2.2,0-4-1.8-4-4C50,964.2,51.8,962.4,54,962.4z M34,967.4c10.5,0,19,8.5,19,19s-8.5,19-19,19 s-19-8.5-19-19S23.5,967.4,34,967.4z M34,971.4c-8.3,0-15,6.7-15,15s6.7,15,15,15s15-6.7,15-15C49,978.1,42.3,971.4,34,971.4z"/> </g></symbol><symbol id="profile" viewBox="0 0 563.43 563.43"><title>profile</title><path d="M280.79,314.559c83.266,0,150.803-67.538,150.803-150.803S364.055,13.415,280.79,13.415S129.987,80.953,129.987,163.756 S197.524,314.559,280.79,314.559z M280.79,52.735c61.061,0,111.021,49.959,111.021,111.021S341.851,274.776,280.79,274.776 s-111.021-49.959-111.021-111.021S219.728,52.735,280.79,52.735z"/><path d="M19.891,550.015h523.648c11.102,0,19.891-8.789,19.891-19.891c0-104.082-84.653-189.198-189.198-189.198H189.198 C85.116,340.926,0,425.579,0,530.124C0,541.226,8.789,550.015,19.891,550.015z M189.198,380.708h185.034 c75.864,0,138.313,56.436,148.028,129.524H41.17C50.884,437.607,113.334,380.708,189.198,380.708z"/></symbol></svg>